<?xml version="1.0" encoding="utf-8"?>
<!-- Generator: Adobe Illustrator 27.5.0, SVG Export Plug-In . SVG Version: 6.00 Build 0)  -->
<svg version="1.1" xmlns="http://www.w3.org/2000/svg" xmlns:xlink="http://www.w3.org/1999/xlink" x="0px" y="0px"
	 viewBox="0 0 500 500" style="enable-background:new 0 0 500 500;" xml:space="preserve">
<g id="BACKGROUND">
	<rect style="fill:#00AEEF;" width="500" height="500"/>
</g>
<g id="OBJECTS">
	<g>
		<g>
			<defs>
				<rect id="SVGID_1_" width="500" height="500"/>
			</defs>
			<clipPath id="SVGID_00000080169047966295498550000016587727799957565361_">
				<use xlink:href="#SVGID_1_"  style="overflow:visible;"/>
			</clipPath>
			<g style="clip-path:url(#SVGID_00000080169047966295498550000016587727799957565361_);">
				<g>
					<g>
						<line style="fill:none;stroke:#00A0E0;stroke-miterlimit:10;" x1="-27.396" y1="5.346" x2="524.577" y2="5.346"/>
					</g>
					<g>
						<line style="fill:none;stroke:#00A0E0;stroke-miterlimit:10;" x1="-27.396" y1="13.891" x2="524.577" y2="13.891"/>
					</g>
					<g>
						<line style="fill:none;stroke:#00A0E0;stroke-miterlimit:10;" x1="-27.396" y1="22.436" x2="524.577" y2="22.436"/>
					</g>
					<g>
						<line style="fill:none;stroke:#00A0E0;stroke-miterlimit:10;" x1="-27.396" y1="30.981" x2="524.577" y2="30.981"/>
					</g>
					<g>
						<line style="fill:none;stroke:#00A0E0;stroke-miterlimit:10;" x1="-27.396" y1="39.526" x2="524.577" y2="39.526"/>
					</g>
					<g>
						<line style="fill:none;stroke:#00A0E0;stroke-miterlimit:10;" x1="-27.396" y1="48.071" x2="524.577" y2="48.071"/>
					</g>
					<g>
						<line style="fill:none;stroke:#00A0E0;stroke-miterlimit:10;" x1="-27.396" y1="56.616" x2="524.577" y2="56.616"/>
					</g>
					<g>
						<line style="fill:none;stroke:#00A0E0;stroke-miterlimit:10;" x1="-27.396" y1="65.161" x2="524.577" y2="65.161"/>
					</g>
					<g>
						<line style="fill:none;stroke:#00A0E0;stroke-miterlimit:10;" x1="-27.396" y1="73.705" x2="524.577" y2="73.705"/>
					</g>
					<g>
						<line style="fill:none;stroke:#00A0E0;stroke-miterlimit:10;" x1="-27.396" y1="82.251" x2="524.577" y2="82.251"/>
					</g>
					<g>
						<line style="fill:none;stroke:#00A0E0;stroke-miterlimit:10;" x1="-27.396" y1="90.795" x2="524.577" y2="90.795"/>
					</g>
					<g>
						<line style="fill:none;stroke:#00A0E0;stroke-miterlimit:10;" x1="-27.396" y1="99.34" x2="524.577" y2="99.34"/>
					</g>
					<g>
						<line style="fill:none;stroke:#00A0E0;stroke-miterlimit:10;" x1="-27.396" y1="107.885" x2="524.577" y2="107.885"/>
					</g>
					<g>
						<line style="fill:none;stroke:#00A0E0;stroke-miterlimit:10;" x1="-27.396" y1="116.43" x2="524.577" y2="116.43"/>
					</g>
					<g>
						<line style="fill:none;stroke:#00A0E0;stroke-miterlimit:10;" x1="-27.396" y1="124.975" x2="524.577" y2="124.975"/>
					</g>
					<g>
						<line style="fill:none;stroke:#00A0E0;stroke-miterlimit:10;" x1="-27.396" y1="133.52" x2="524.577" y2="133.52"/>
					</g>
					<g>
						<line style="fill:none;stroke:#00A0E0;stroke-miterlimit:10;" x1="-27.396" y1="142.065" x2="524.577" y2="142.065"/>
					</g>
					<g>
						<line style="fill:none;stroke:#00A0E0;stroke-miterlimit:10;" x1="-27.396" y1="150.61" x2="524.577" y2="150.61"/>
					</g>
					<g>
						<line style="fill:none;stroke:#00A0E0;stroke-miterlimit:10;" x1="-27.396" y1="159.155" x2="524.577" y2="159.155"/>
					</g>
					<g>
						<line style="fill:none;stroke:#00A0E0;stroke-miterlimit:10;" x1="-27.396" y1="167.7" x2="524.577" y2="167.7"/>
					</g>
					<g>
						<line style="fill:none;stroke:#00A0E0;stroke-miterlimit:10;" x1="-27.396" y1="176.245" x2="524.577" y2="176.245"/>
					</g>
					<g>
						<line style="fill:none;stroke:#00A0E0;stroke-miterlimit:10;" x1="-27.396" y1="184.79" x2="524.577" y2="184.79"/>
					</g>
					<g>
						<line style="fill:none;stroke:#00A0E0;stroke-miterlimit:10;" x1="-27.396" y1="193.335" x2="524.577" y2="193.335"/>
					</g>
					<g>
						<line style="fill:none;stroke:#00A0E0;stroke-miterlimit:10;" x1="-27.396" y1="201.88" x2="524.577" y2="201.88"/>
					</g>
					<g>
						<line style="fill:none;stroke:#00A0E0;stroke-miterlimit:10;" x1="-27.396" y1="210.425" x2="524.577" y2="210.425"/>
					</g>
					<g>
						<line style="fill:none;stroke:#00A0E0;stroke-miterlimit:10;" x1="-27.396" y1="218.97" x2="524.577" y2="218.97"/>
					</g>
					<g>
						<line style="fill:none;stroke:#00A0E0;stroke-miterlimit:10;" x1="-27.396" y1="227.515" x2="524.577" y2="227.515"/>
					</g>
					<g>
						<line style="fill:none;stroke:#00A0E0;stroke-miterlimit:10;" x1="-27.396" y1="236.059" x2="524.577" y2="236.059"/>
					</g>
					<g>
						<line style="fill:none;stroke:#00A0E0;stroke-miterlimit:10;" x1="-27.396" y1="244.605" x2="524.577" y2="244.605"/>
					</g>
					<g>
						<line style="fill:none;stroke:#00A0E0;stroke-miterlimit:10;" x1="-27.396" y1="253.149" x2="524.577" y2="253.149"/>
					</g>
					<g>
						<line style="fill:none;stroke:#00A0E0;stroke-miterlimit:10;" x1="-27.396" y1="261.694" x2="524.577" y2="261.694"/>
					</g>
					<g>
						<line style="fill:none;stroke:#00A0E0;stroke-miterlimit:10;" x1="-27.396" y1="270.239" x2="524.577" y2="270.239"/>
					</g>
					<g>
						<line style="fill:none;stroke:#00A0E0;stroke-miterlimit:10;" x1="-27.396" y1="278.784" x2="524.577" y2="278.784"/>
					</g>
					<g>
						<line style="fill:none;stroke:#00A0E0;stroke-miterlimit:10;" x1="-27.396" y1="287.329" x2="524.577" y2="287.329"/>
					</g>
					<g>
						<line style="fill:none;stroke:#00A0E0;stroke-miterlimit:10;" x1="-27.396" y1="295.874" x2="524.577" y2="295.874"/>
					</g>
					<g>
						<line style="fill:none;stroke:#00A0E0;stroke-miterlimit:10;" x1="-27.396" y1="304.419" x2="524.577" y2="304.419"/>
					</g>
					<g>
						<line style="fill:none;stroke:#00A0E0;stroke-miterlimit:10;" x1="-27.396" y1="312.964" x2="524.577" y2="312.964"/>
					</g>
					<g>
						<line style="fill:none;stroke:#00A0E0;stroke-miterlimit:10;" x1="-27.396" y1="321.509" x2="524.577" y2="321.509"/>
					</g>
					<g>
						<line style="fill:none;stroke:#00A0E0;stroke-miterlimit:10;" x1="-27.396" y1="330.054" x2="524.577" y2="330.054"/>
					</g>
					<g>
						<line style="fill:none;stroke:#00A0E0;stroke-miterlimit:10;" x1="-27.396" y1="338.599" x2="524.577" y2="338.599"/>
					</g>
					<g>
						<line style="fill:none;stroke:#00A0E0;stroke-miterlimit:10;" x1="-27.396" y1="347.144" x2="524.577" y2="347.144"/>
					</g>
					<g>
						<line style="fill:none;stroke:#00A0E0;stroke-miterlimit:10;" x1="-27.396" y1="355.689" x2="524.577" y2="355.689"/>
					</g>
					<g>
						<line style="fill:none;stroke:#00A0E0;stroke-miterlimit:10;" x1="-27.396" y1="364.234" x2="524.577" y2="364.234"/>
					</g>
					<g>
						<line style="fill:none;stroke:#00A0E0;stroke-miterlimit:10;" x1="-27.396" y1="372.779" x2="524.577" y2="372.779"/>
					</g>
					<g>
						<line style="fill:none;stroke:#00A0E0;stroke-miterlimit:10;" x1="-27.396" y1="381.324" x2="524.577" y2="381.324"/>
					</g>
					<g>
						<line style="fill:none;stroke:#00A0E0;stroke-miterlimit:10;" x1="-27.396" y1="389.869" x2="524.577" y2="389.869"/>
					</g>
					<g>
						<line style="fill:none;stroke:#00A0E0;stroke-miterlimit:10;" x1="-27.396" y1="398.414" x2="524.577" y2="398.414"/>
					</g>
					<g>
						<line style="fill:none;stroke:#00A0E0;stroke-miterlimit:10;" x1="-27.396" y1="406.958" x2="524.577" y2="406.958"/>
					</g>
					<g>
						<line style="fill:none;stroke:#00A0E0;stroke-miterlimit:10;" x1="-27.396" y1="415.503" x2="524.577" y2="415.503"/>
					</g>
					<g>
						<line style="fill:none;stroke:#00A0E0;stroke-miterlimit:10;" x1="-27.396" y1="424.048" x2="524.577" y2="424.048"/>
					</g>
					<g>
						<line style="fill:none;stroke:#00A0E0;stroke-miterlimit:10;" x1="-27.396" y1="432.593" x2="524.577" y2="432.593"/>
					</g>
					<g>
						<line style="fill:none;stroke:#00A0E0;stroke-miterlimit:10;" x1="-27.396" y1="441.138" x2="524.577" y2="441.138"/>
					</g>
					<g>
						<line style="fill:none;stroke:#00A0E0;stroke-miterlimit:10;" x1="-27.396" y1="449.683" x2="524.577" y2="449.683"/>
					</g>
					<g>
						<line style="fill:none;stroke:#00A0E0;stroke-miterlimit:10;" x1="-27.396" y1="458.228" x2="524.577" y2="458.228"/>
					</g>
					<g>
						<line style="fill:none;stroke:#00A0E0;stroke-miterlimit:10;" x1="-27.396" y1="466.773" x2="524.577" y2="466.773"/>
					</g>
					<g>
						<line style="fill:none;stroke:#00A0E0;stroke-miterlimit:10;" x1="-27.396" y1="475.318" x2="524.577" y2="475.318"/>
					</g>
					<g>
						<line style="fill:none;stroke:#00A0E0;stroke-miterlimit:10;" x1="-27.396" y1="483.863" x2="524.577" y2="483.863"/>
					</g>
					<g>
						<line style="fill:none;stroke:#00A0E0;stroke-miterlimit:10;" x1="-27.396" y1="492.408" x2="524.577" y2="492.408"/>
					</g>
					<g>
						<line style="fill:none;stroke:#00A0E0;stroke-miterlimit:10;" x1="-27.396" y1="500.953" x2="524.577" y2="500.953"/>
					</g>
					<g>
						<line style="fill:none;stroke:#00A0E0;stroke-miterlimit:10;" x1="-27.396" y1="509.498" x2="524.577" y2="509.498"/>
					</g>
				</g>
			</g>
		</g>
		<g>
			<path style="fill:#0064D6;" d="M155.658,53.006c39.637-39.365,106.473-23.624,165.3,37.328s108.039,75.685,143.039,125.062
				c51.567,72.749-33.834,216.305-254.917,201.958S17.354,231.436,81.175,194.721C144.997,158.006,106.319,102.006,155.658,53.006z"
				/>
			<ellipse style="fill:#80D2E8;" cx="232.997" cy="462.041" rx="196" ry="6.964"/>
			<g>
				<g>
					<path style="fill:#031547;" d="M395.7,459.276H211.07c-7.908,0-14.319-6.411-14.319-14.319V82.015
						c0-7.908,6.411-14.319,14.319-14.319H395.7c7.908,0,14.319,6.411,14.319,14.319v362.943
						C410.019,452.866,403.608,459.276,395.7,459.276z"/>
					<rect x="209.08" y="90.334" style="fill:#0064D6;" width="188.609" height="332.681"/>
					<g>
						<rect x="261.218" y="78.417" style="fill:#000019;" width="71" height="3"/>
						<circle style="fill:#000019;" cx="341.718" cy="79.917" r="3.833"/>
						<circle style="opacity:0.6;fill:#FFFFFF;" cx="342.76" cy="79.042" r="1.582"/>
						<circle style="opacity:0.6;fill:#FFFFFF;" cx="341.718" cy="80.167" r="0.808"/>
					</g>
					<g>
						<defs>
							<circle id="SVGID_00000058560466471137902630000006575026478786382510_" cx="303.385" cy="441.877" r="12.389"/>
						</defs>
						<clipPath id="SVGID_00000093886301490988678760000018121756509952105144_">
							<use xlink:href="#SVGID_00000058560466471137902630000006575026478786382510_"  style="overflow:visible;"/>
						</clipPath>
						
							<circle style="clip-path:url(#SVGID_00000093886301490988678760000018121756509952105144_);fill:#C0D9E6;" cx="303.385" cy="441.877" r="12.389"/>
						
							<circle style="clip-path:url(#SVGID_00000093886301490988678760000018121756509952105144_);fill:#FFFFFF;" cx="301.218" cy="441.877" r="12.389"/>
					</g>
				</g>
				<g>
					<path style="fill:#000006;" d="M364.705,140.102l-79.001-23.548c-4.878-1.454-10.011,1.322-11.464,6.199l-14.588,48.94
						c-1.454,4.878,1.322,10.01,6.199,11.464l32.252,9.614l-4.591,14.416l7.518,2.241l11.569-12.336l32.252,9.614
						c4.878,1.454,10.011-1.322,11.465-6.199l14.588-48.94C372.358,146.688,369.582,141.556,364.705,140.102z"/>
					<path style="fill:#031547;" d="M357.187,137.861l-79.001-23.548c-4.878-1.454-10.011,1.322-11.464,6.199l-14.588,48.94
						c-1.454,4.878,1.322,10.01,6.199,11.464l32.252,9.614l2.927,16.657l11.569-12.336l32.252,9.614
						c4.878,1.454,10.01-1.322,11.464-6.199l14.588-48.94C364.84,144.447,362.064,139.315,357.187,137.861z"/>
					<g>
						<g>
							<path style="fill:#FFFFFF;" d="M305.561,150.576l-8.567,28.336l18.964,5.733c2.824,0.854,5.856-0.416,7.23-3.026l8.2-15.583
								c1.802-3.424,0.036-7.641-3.667-8.76l-7.51-2.271l5.326-7.467c1.236-1.733,1.468-3.99,0.609-5.938l0,0
								c-0.543-1.233-2.145-1.553-3.121-0.624l0,0c-4.835,4.607-10.774,7.894-17.246,9.544L305.561,150.576z"/>
							<g>
								
									<rect x="275.447" y="154.429" transform="matrix(0.2894 -0.9572 0.9572 0.2894 51.7514 392.5284)" style="fill:#0064D6;" width="29.602" height="13.96"/>
							</g>
						</g>
					</g>
				</g>
				<g>
					<path style="fill:#C55E33;" d="M342.525,188.449l-41.932,8.04c-2.589,0.496-4.285,2.997-3.789,5.587l4.98,25.976
						c0.496,2.589,2.998,4.285,5.586,3.789l17.119-3.282l1.332,7.722l3.99-0.765l2.372-8.432l17.119-3.282
						c2.589-0.496,4.285-2.997,3.789-5.587l-4.98-25.976C347.615,189.649,345.114,187.952,342.525,188.449z"/>
					<path style="fill:#F9A146;" d="M338.535,189.214l-41.932,8.039c-2.589,0.496-4.285,2.997-3.789,5.587l4.98,25.976
						c0.496,2.589,2.998,4.285,5.587,3.789l17.119-3.282l5.322,6.957l2.372-8.432l17.119-3.282c2.589-0.496,4.285-2.998,3.789-5.587
						l-4.98-25.976C343.625,190.414,341.123,188.717,338.535,189.214z"/>
					<g>
						<path style="fill:#FFFFFF;" d="M328.753,200.162c0.334,1.778-0.837,3.49-2.615,3.824c-1.778,0.334-3.49-0.837-3.824-2.615
							c-0.334-1.778,0.837-3.49,2.615-3.824C326.708,197.213,328.42,198.384,328.753,200.162z"/>
						<path style="fill:#FFFFFF;" d="M331.965,217.273c0.334,1.778-0.837,3.49-2.615,3.824c-1.778,0.334-3.49-0.837-3.824-2.615
							c-0.334-1.778,0.837-3.49,2.615-3.824C329.919,214.324,331.631,215.495,331.965,217.273z"/>
						<path style="fill:#FFFFFF;" d="M315.464,211.515c0.334,1.778-0.837,3.49-2.615,3.824c-1.778,0.334-3.49-0.837-3.824-2.615
							c-0.334-1.778,0.837-3.49,2.615-3.824C313.418,208.566,315.13,209.737,315.464,211.515z"/>
						<polyline style="fill:none;stroke:#FFFFFF;stroke-width:2;stroke-miterlimit:10;" points="325.534,200.766 312.244,212.12 
							328.746,217.877 						"/>
					</g>
				</g>
				
					<line style="fill:none;stroke:#E2F4FF;stroke-width:6;stroke-linecap:round;stroke-miterlimit:10;" x1="229.989" y1="263.486" x2="374.663" y2="263.486"/>
				
					<line style="fill:none;stroke:#E2F4FF;stroke-width:6;stroke-linecap:round;stroke-miterlimit:10;" x1="229.989" y1="278.892" x2="374.663" y2="278.892"/>
				
					<line style="fill:none;stroke:#E2F4FF;stroke-width:6;stroke-linecap:round;stroke-miterlimit:10;" x1="229.989" y1="294.298" x2="332.101" y2="294.298"/>
				
					<line style="fill:none;stroke:#E2F4FF;stroke-width:6;stroke-linecap:round;stroke-miterlimit:10;" x1="229.989" y1="309.704" x2="285.497" y2="309.704"/>
				<path style="fill:#F9A146;" d="M237.778,243.672c0-2.946-2.388-5.334-5.334-5.334c-2.946,0-5.334,2.388-5.334,5.334
					c0,2.946,2.388,5.334,5.334,5.334C235.39,249.006,237.778,246.618,237.778,243.672z"/>
				<path style="fill:#75C043;" d="M254.203,243.672c0-2.946-2.388-5.334-5.334-5.334c-2.946,0-5.334,2.388-5.334,5.334
					c0,2.946,2.388,5.334,5.334,5.334C251.815,249.006,254.203,246.618,254.203,243.672z"/>
				<g>
					<circle style="fill:#DAA141;" cx="257.743" cy="356.836" r="26.722"/>
					<circle style="fill:#FDCE4C;" cx="254.348" cy="356.836" r="26.722"/>
					<g>
						<defs>
							
								<ellipse id="SVGID_00000142168302496766941000000005570983962089610663_" transform="matrix(0.9219 -0.3875 0.3875 0.9219 -118.4053 126.4303)" cx="254.348" cy="356.864" rx="20.327" ry="20.327"/>
						</defs>
						<clipPath id="SVGID_00000026876977126996356000000004889201817606347436_">
							<use xlink:href="#SVGID_00000142168302496766941000000005570983962089610663_"  style="overflow:visible;"/>
						</clipPath>
						
							<ellipse transform="matrix(0.9219 -0.3875 0.3875 0.9219 -118.4053 126.4303)" style="clip-path:url(#SVGID_00000026876977126996356000000004889201817606347436_);fill:#DAA141;" cx="254.348" cy="356.864" rx="20.327" ry="20.327"/>
						
							<circle style="clip-path:url(#SVGID_00000026876977126996356000000004889201817606347436_);fill:#FBC23F;" cx="257.621" cy="360.137" r="20.327"/>
					</g>
					<g>
						
							<text transform="matrix(1 0 0 1 246.0066 366.1282)" style="fill:#DAA141; font-family:'Montserrat-Bold'; font-size:26.1511px;">$</text>
					</g>
				</g>
				<g>
					<rect x="287.421" y="395.506" style="fill:#E2F4FF;" width="16.829" height="11.5"/>
					<rect x="310.892" y="375.069" style="fill:#E2F4FF;" width="16.829" height="31.936"/>
					<rect x="334.363" y="331.534" style="fill:#E2F4FF;" width="16.829" height="75.472"/>
					<rect x="357.834" y="314.006" style="fill:#E2F4FF;" width="16.829" height="93"/>
					<rect x="287.421" y="401.256" style="fill:#FDCE4C;" width="16.829" height="5.75"/>
					<rect x="310.892" y="385.672" style="fill:#FDCE4C;" width="16.829" height="21.333"/>
					<rect x="334.363" y="395.506" style="fill:#FDCE4C;" width="16.829" height="11.5"/>
					<rect x="357.834" y="339.339" style="fill:#FDCE4C;" width="16.829" height="67.667"/>
				</g>
				<g>
					<text transform="matrix(1 0 0 1 230.6692 398.7588)" style="fill:#FDCE4C; font-family:'Montserrat-Bold'; font-size:12px;">$100</text>
				</g>
				
					<text transform="matrix(1 0 0 1 231.0213 405.697)" style="fill:#E2F4FF; font-family:'Montserrat-Regular'; font-size:5.7158px;">Lorem ipsum</text>
			</g>
			<g>
				<g>
					<path style="fill:#FFFFFF;" d="M62.881,457.401c0,0,1.14,4.329,2.641,4.965c1.501,0.636,39.052,0.146,44.063,0.38
						c5.299,0.247,6.855-3.149,7.238-8.132C117.079,451.268,62.881,457.401,62.881,457.401z"/>
					<path style="fill:#003045;" d="M67.442,435.444c-1.927-0.365-2.388-0.576-2.932,2.788c-0.59,3.647-2.906,19.064-1.316,19.586
						c1.023,0.336,40.347,1.226,48.822,0.854c8.475-0.372,5.158-14.203-3.663-15.524c-8.821-1.322-11.864,0.724-14.752-0.79
						s-7.38-6.153-10.272-6.819C79.75,434.713,67.442,435.444,67.442,435.444z"/>
					<g>
						<defs>
							<path id="SVGID_00000079481704289722664230000016482092951009335460_" d="M67.442,435.444
								c-1.927-0.365-2.388-0.576-2.932,2.788c-0.59,3.647-2.906,19.064-1.316,19.586c1.023,0.336,40.347,1.226,48.822,0.854
								c8.475-0.372,5.158-14.203-3.663-15.524c-8.821-1.322-11.864,0.724-14.752-0.79s-7.38-6.153-10.272-6.819
								C79.75,434.713,67.442,435.444,67.442,435.444z"/>
						</defs>
						<clipPath id="SVGID_00000005963219822991177610000006543060351757527478_">
							<use xlink:href="#SVGID_00000079481704289722664230000016482092951009335460_"  style="overflow:visible;"/>
						</clipPath>
						
							<path style="clip-path:url(#SVGID_00000005963219822991177610000006543060351757527478_);fill:none;stroke:#FFFFFF;stroke-width:7;stroke-miterlimit:10;" d="
							M60.264,449.38c0,0,34.206-1.846,37.414,15.694"/>
					</g>
					<path style="fill:none;stroke:#80D2E8;stroke-width:2;stroke-linecap:round;stroke-miterlimit:10;" d="M81.175,441.45
						c0,0,1.957-1.992,5.893-3.712"/>
					<path style="fill:none;stroke:#80D2E8;stroke-width:2;stroke-linecap:round;stroke-miterlimit:10;" d="M84.002,443.401
						c0,0,1.56-2.432,6.177-3.793"/>
					<path style="fill:none;stroke:#80D2E8;stroke-width:2;stroke-linecap:round;stroke-miterlimit:10;" d="M86.565,445.353
						c0,0,1.884-2.688,6.091-3.56"/>
				</g>
				<g>
					<path style="fill:#FFFFFF;" d="M125.913,454.795c0,0,1.11,4.252,2.611,4.888c1.501,0.636,39.052,0.146,44.063,0.38
						c5.299,0.247,6.855-3.149,7.238-8.132C180.081,448.586,125.913,454.795,125.913,454.795z"/>
					<path style="fill:#003045;" d="M130.444,432.761c-1.927-0.365-2.387-0.576-2.932,2.788c-0.59,3.647-2.906,19.064-1.316,19.586
						c1.023,0.336,40.347,1.226,48.822,0.854c8.475-0.372,5.158-14.203-3.663-15.524c-8.821-1.322-11.864,0.724-14.752-0.79
						c-2.888-1.515-7.38-6.153-10.272-6.819C142.752,432.031,130.444,432.761,130.444,432.761z"/>
					<g>
						<defs>
							<path id="SVGID_00000052085875494049799290000006080060858471505540_" d="M130.444,432.761
								c-1.927-0.365-2.387-0.576-2.932,2.788c-0.59,3.647-2.906,19.064-1.316,19.586c1.023,0.336,40.347,1.226,48.822,0.854
								c8.475-0.372,5.158-14.203-3.663-15.524c-8.821-1.322-11.864,0.724-14.752-0.79c-2.888-1.515-7.38-6.153-10.272-6.819
								C142.752,432.031,130.444,432.761,130.444,432.761z"/>
						</defs>
						<clipPath id="SVGID_00000123421970898396719720000014570593856189678515_">
							<use xlink:href="#SVGID_00000052085875494049799290000006080060858471505540_"  style="overflow:visible;"/>
						</clipPath>
						
							<path style="clip-path:url(#SVGID_00000123421970898396719720000014570593856189678515_);fill:none;stroke:#FFFFFF;stroke-width:7;stroke-miterlimit:10;" d="
							M123.266,446.698c0,0,34.206-1.846,37.414,15.694"/>
					</g>
					<path style="fill:none;stroke:#80D2E8;stroke-width:2;stroke-linecap:round;stroke-miterlimit:10;" d="M144.177,438.768
						c0,0,1.957-1.991,5.893-3.712"/>
					<path style="fill:none;stroke:#80D2E8;stroke-width:2;stroke-linecap:round;stroke-miterlimit:10;" d="M147.004,440.719
						c0,0,1.56-2.432,6.177-3.793"/>
					<path style="fill:none;stroke:#80D2E8;stroke-width:2;stroke-linecap:round;stroke-miterlimit:10;" d="M149.567,442.671
						c0,0,1.884-2.688,6.091-3.56"/>
				</g>
				<path style="fill:#F5BAAA;" d="M67.65,420.365l-0.789,15.022c0.871,0.812,2.558,2.149,5.041,2.789
					c4.586,1.183,8.355-0.923,9.199-1.422c0.936-5.624,1.873-11.248,2.809-16.871L67.65,420.365z"/>
				<path style="fill:#F5BAAA;" d="M130.716,417.836l-0.79,15.022c0.872,0.812,2.559,2.149,5.041,2.789
					c4.586,1.183,8.355-0.923,9.199-1.422c0.936-5.624,1.873-11.248,2.809-16.871L130.716,417.836z"/>
				<g>
					<path style="fill:#F5BAAA;" d="M161.092,198.484c-2.766-7.766,16.629-6.22,19.092-6.173
						c2.462,0.047,12.084,23.547,14.855,33.32c1.165,4.106-2.223,14.05-10.27,11.35C175.734,233.949,169.344,221.65,161.092,198.484
						z"/>
					<path style="fill:#80D2E8;" d="M150.661,147.36c9.118,0.991,18.732,11.091,24.048,20.261
						c5.316,9.17,10.398,26.921,10.398,26.921s-7.902,9.586-24.964,8.794c0,0-8.131-15.784-11.883-31.423
						C144.508,156.275,144.591,146.701,150.661,147.36z"/>
					<path style="fill:#F5BAAA;" d="M187.912,237.515c7.017,1.531,36.465-11.872,50.207-23.646
						c5.401-4.627,2.137-16.613-9.363-10.081c-19.186,10.898-36.262,14.154-36.262,14.154S175.648,234.838,187.912,237.515z"/>
					<g>
						<defs>
							<path id="SVGID_00000036966107683851700600000008608603825759374235_" d="M260.937,192.138
								c-6.409,0.451-16.233,3.086-16.871,2.292c-1.195-1.49,0.37-3.377,0.68-5.881c0.41-3.307-0.566-8.549-2.323-5.784
								c-1.058,1.666-2.354,5.302-5.723,9.096c-3.369,3.793-7.366,11.111-7.649,11.503c-0.102,0.141-0.189,0.279-0.283,0.419
								c-0.004,0.003-0.009,0.004-0.013,0.007c-19.186,10.898-36.262,14.154-36.262,14.154l0,0
								c-3.976-10.974-10.368-25.594-12.31-25.631c-2.462-0.047-21.858-1.593-19.092,6.173
								c8.252,23.166,14.642,35.465,23.677,38.497c1.024,0.344,1.973,0.481,2.846,0.453c0.102,0.025,0.19,0.058,0.297,0.081
								c6.376,1.392,31.271-9.549,46.076-20.392c0.102-0.037,0.197-0.081,0.275-0.141c1.972-1.512,7.016-2.786,14.194-8.267
								c7.178-5.481,21.608-13.652,22.145-15.509S267.347,191.687,260.937,192.138z"/>
						</defs>
						<clipPath id="SVGID_00000067232216117635628260000012985420848544471737_">
							<use xlink:href="#SVGID_00000036966107683851700600000008608603825759374235_"  style="overflow:visible;"/>
						</clipPath>
						
							<polygon style="opacity:0.6;clip-path:url(#SVGID_00000067232216117635628260000012985420848544471737_);fill:#972229;" points="
							232.8,213.247 191.723,246.158 161.787,229.205 217.572,214.654 						"/>
					</g>
					<g>
						<defs>
							<path id="SVGID_00000102516766463435457310000004909523082302338691_" d="M150.661,147.36
								c9.118,0.991,18.732,11.091,24.048,20.261c5.316,9.17,10.398,26.921,10.398,26.921s-7.902,9.586-24.964,8.794
								c0,0-8.131-15.784-11.883-31.423C144.508,156.275,144.591,146.701,150.661,147.36z"/>
						</defs>
						<clipPath id="SVGID_00000178176588675987775480000011552138746193898652_">
							<use xlink:href="#SVGID_00000102516766463435457310000004909523082302338691_"  style="overflow:visible;"/>
						</clipPath>
						
							<path style="clip-path:url(#SVGID_00000178176588675987775480000011552138746193898652_);fill:none;stroke:#FFFFFF;stroke-width:4;stroke-miterlimit:10;" d="
							M152.847,200.648c0,0,19.743-2.51,33.143-13.949"/>
						
							<path style="clip-path:url(#SVGID_00000178176588675987775480000011552138746193898652_);fill:none;stroke:#FFFFFF;stroke-width:4;stroke-miterlimit:10;" d="
							M148.475,194.529c0,0,19.743-2.509,33.143-13.949"/>
						<path style="opacity:0.6;clip-path:url(#SVGID_00000178176588675987775480000011552138746193898652_);fill:#972229;" d="
							M149.803,163.482c0,0,9.532,22.121,19.437,44.234l-15.628-0.428L149.803,163.482z"/>
					</g>
					<path style="fill:#F5BAAA;" d="M229.052,203.362c0.283-0.391,4.281-7.709,7.649-11.503c3.369-3.794,4.665-7.43,5.723-9.096
						c1.757-2.765,2.732,2.478,2.323,5.784c-0.31,2.504-1.875,4.391-0.68,5.881c0.637,0.795,10.461-1.841,16.871-2.292
						c6.409-0.451,10.202-0.79,9.665,1.068s-14.968,10.029-22.145,15.509c-7.178,5.48-12.222,6.755-14.194,8.267
						C232.29,218.494,222.451,212.485,229.052,203.362z"/>
				</g>
				<path style="fill:#192637;" d="M116.183,262.258c0,0,10.756,81.084,34.18,90.426c23.425,9.341,9.816-91.733,9.816-91.733
					S132.109,250.133,116.183,262.258z"/>
				<path style="fill:#192637;" d="M136.619,334.344c0,0,10.126-13.158,26.304-1.363c3.071,2.239-10.27,61.729-12.982,76.469
					c-0.626,3.4-2.9,12.55-2.9,12.55l-17.833,0.069c0,0-1.466-12.233-1.614-15.5C126.692,386.686,123.59,361.105,136.619,334.344z"
					/>
				<path style="fill:#273548;" d="M88.318,257.211c0,0-10.222,81.154,10.057,96.146c20.279,14.992,32.826-86.219,32.826-86.219
					S106.804,249.536,88.318,257.211z"/>
				<path style="fill:#273548;" d="M87.529,337.651c0,0,12.459-11.719,26.305,2.742c2.628,2.745-20.286,58.284-25.554,72.316
					c-1.089,2.901-4.671,12.456-4.671,12.456l-16.792-0.946c0,0-1.71-14.692-1.332-17.539
					C68.102,386.95,69.986,361.697,87.529,337.651z"/>
				<g>
					<defs>
						<path id="SVGID_00000026863043876056408990000008783767546785616525_" d="M112.529,144.409l20.88,0.469
							c0,0,24.75,0.141,27.115,10.221c3.172,13.521-2.065,31.601-2.748,42.011c-1.129,17.21,0.597,56.508,3.345,68.516
							c0,0-57.222,10.077-74.127,1.221c0,0-0.976-6.137-1.022-9.847c-0.272-22.329,6.488-43.689,5.054-60.081
							C88.812,171.612,66.051,147.903,112.529,144.409z"/>
					</defs>
					<clipPath id="SVGID_00000136390347458386970350000002380925034674565820_">
						<use xlink:href="#SVGID_00000026863043876056408990000008783767546785616525_"  style="overflow:visible;"/>
					</clipPath>
					<path style="clip-path:url(#SVGID_00000136390347458386970350000002380925034674565820_);fill:#80D2E8;" d="M112.529,144.409
						l20.88,0.469c0,0,24.75,0.141,27.115,10.221c3.172,13.521-2.065,31.601-2.748,42.011c-1.129,17.21,0.597,56.508,3.345,68.516
						c0,0-57.222,10.077-74.127,1.221c0,0-0.976-6.137-1.022-9.847c-0.272-22.329,6.488-43.689,5.054-60.081
						C88.812,171.612,66.051,147.903,112.529,144.409z"/>
					<path style="opacity:0.6;clip-path:url(#SVGID_00000136390347458386970350000002380925034674565820_);fill:#972229;" d="
						M111.452,150.005c0,0,4.054,5.194,12.744,4.696c8.69-0.498,10.621-4.481,10.621-4.481s-1.86,6.493-11.337,6.256
						C113.707,156.23,111.452,150.005,111.452,150.005z"/>
					<path style="opacity:0.6;clip-path:url(#SVGID_00000136390347458386970350000002380925034674565820_);fill:#972229;" d="
						M106.887,161.818c0,0,16.791,18.42,37.958,62.584l-23.769-16.988L106.887,161.818z"/>
					
						<polygon style="opacity:0.6;clip-path:url(#SVGID_00000136390347458386970350000002380925034674565820_);fill:#972229;" points="
						89.004,186.623 165.706,250.112 165.791,271.945 153.898,269.376 83,201.512 					"/>
				</g>
				<g>
					<defs>
						<path id="SVGID_00000021080213873056119180000000400048464073048510_" d="M133.409,144.879
							c-0.508,0.628-3.953,4.748-9.81,4.946c-6.744,0.229-10.721-4.945-11.07-5.415c1.01-4.151,1.919-9.425,2.1-15.568
							c0.174-5.895-0.368-11.021-1.08-15.114c6.96,0.157,13.92,0.313,20.88,0.47L133.409,144.879z"/>
					</defs>
					<clipPath id="SVGID_00000137121945762643370750000002485173156373679530_">
						<use xlink:href="#SVGID_00000021080213873056119180000000400048464073048510_"  style="overflow:visible;"/>
					</clipPath>
					<path style="clip-path:url(#SVGID_00000137121945762643370750000002485173156373679530_);fill:#F5BAAA;" d="M133.409,144.879
						c-0.508,0.628-3.108,4.689-8.965,4.887c-6.744,0.228-11.566-4.886-11.915-5.356c1.01-4.151,1.919-9.425,2.1-15.568
						c0.174-5.895-0.368-11.021-1.08-15.114c6.96,0.157,13.92,0.313,20.88,0.47L133.409,144.879z"/>
					<path style="clip-path:url(#SVGID_00000137121945762643370750000002485173156373679530_);fill:#B9484F;" d="M121.162,126.757
						c0,0,1.988,18.133,15.749,16.667c13.761-1.467,2.443-16.062,2.443-16.062L121.162,126.757z"/>
				</g>
				<path style="fill:#F5BAAA;" d="M151.91,109.824c-0.462,13.907-9.585,24.889-20.376,24.53
					c-10.791-0.359-19.164-11.923-18.702-25.83c0.462-13.907,9.585-24.889,20.377-24.53
					C143.999,84.353,152.372,95.918,151.91,109.824z"/>
				<path style="fill:#6B242E;" d="M128.646,107.096c-0.051,1.524-0.657,2.741-1.355,2.718c-0.698-0.023-1.222-1.278-1.172-2.802
					c0.051-1.524,0.657-2.741,1.355-2.718C128.172,104.317,128.696,105.571,128.646,107.096z"/>
				<path style="fill:#6B242E;" d="M144.588,107.626c-0.051,1.524-0.657,2.741-1.355,2.718c-0.698-0.023-1.222-1.278-1.172-2.802
					c0.051-1.524,0.657-2.741,1.355-2.718C144.114,104.847,144.638,106.102,144.588,107.626z"/>
				<path style="fill:#FFFFFF;" d="M125.346,120.12l12.251,2.684c0,0-2.167,3.389-6.278,3.248
					C129.273,125.982,125.809,123.929,125.346,120.12z"/>
				<path style="fill:#A64143;" d="M130.344,99.124l0.354,2.035c0,0-4.012-1.061-7.566-0.673
					C123.132,100.486,124.207,98.583,130.344,99.124z"/>
				<path style="fill:#A64143;" d="M139.524,99.429l-0.488,2.007c0,0,4.073-0.792,7.594-0.169
					C146.629,101.268,145.683,99.297,139.524,99.429z"/>
				<path style="fill:#F5BAAA;" d="M118.515,107.416c0.789,4.635-0.787,8.77-3.521,9.235c-2.733,0.465-5.588-2.916-6.377-7.551
					c-0.789-4.635,0.787-8.77,3.521-9.235C114.871,99.399,117.726,102.78,118.515,107.416z"/>
				<path style="fill:#6B242E;" d="M113.193,108.321c-0.277-1.63-0.096-3.16,0.411-4.261c-0.252-0.08-0.508-0.104-0.763-0.06
					c-1.387,0.236-2.186,2.334-1.786,4.685c0.4,2.352,1.849,4.067,3.235,3.831c0.255-0.043,0.489-0.15,0.7-0.309
					C114.148,111.335,113.471,109.951,113.193,108.321z"/>
				<path style="fill:#A64143;" d="M135.388,108.173c0,0,3.66,6.047,3.704,7.759c0.044,1.712-3.666,1.869-3.666,1.869
					L135.388,108.173z"/>
				<path style="fill:#6B242E;" d="M114.115,100.529c0,0,2.322,14.921,4.613,16.767c2.291,1.846-0.176-8.491,0.932-17.164
					c1.108-8.673,3.785-12.108,7.654-10.839c3.868,1.269,7.617,5.536,10.174,5.24c2.556-0.295,3.625-4.468,5.769-4.446
					c2.144,0.021,5.701,4.597,6.666,7.586c0,0,2.652-10.334-7.185-20.855c-10.182-10.89-7.124,0.155-7.124,0.155
					s-6.116-5.883-12.548-6.928c-6.431-1.045-2.647,5.148-2.647,5.148s-5.308-2.976-9.35-1.248
					c-4.042,1.728-0.558,5.139-0.558,5.139s-4.328-0.197-7.313,2.811c-2.985,3.008,3.871,4.694,3.871,4.694
					s-4.886,3.872-5.521,8.584c-0.635,4.712,7.598,1.255,7.598,1.255l0.837,4.813C109.983,101.24,112.352,99.089,114.115,100.529z"
					/>
				<g>
					<g>
						<path style="fill:#F5BAAA;" d="M101.656,206.06c0,0,20.729,30.52,32.63,33.863c16.642,4.674,2.671-24.881-12.256-44.651
							C122.031,195.271,114.833,191.036,101.656,206.06z"/>
						<path style="fill:#F5BAAA;" d="M137.483,240.407c0,0,33.317,0.676,57.911-12.997c13.702-7.617,5.709-18.362-3.244-14.135
							c-8.964,4.232-38.016,7.978-57.606,7.536C134.544,220.811,129.8,232.623,137.483,240.407z"/>
						<path style="fill:#80D2E8;" d="M85.137,154.194c-5.167,5.964-3.967,23.271,3.338,36.498
							c7.305,13.227,13.401,19.055,13.401,19.055s10.872,0.761,23.442-13.923C125.318,195.823,100.363,136.619,85.137,154.194z"/>
						<path style="fill:#F5BAAA;" d="M190.332,214.027c0.417-0.245,5.495-6.078,9.574-9.094c4.079-3.017,6.098-6.307,7.477-7.719
							c2.29-2.343,2.162,2.988,1.079,6.139c-0.82,2.386-2.741,3.91-1.879,5.614c0.46,0.909,10.616,0.358,16.98,1.24
							s10.145,1.333,9.236,3.039c-0.909,1.706-16.715,6.724-24.87,10.605c-8.154,3.881-13.353,4.087-15.595,5.16
							C190.094,230.085,181.034,219.491,190.332,214.027z"/>
					</g>
					<g>
						<defs>
							<path id="SVGID_00000167373277984381385470000000734832083534936451_" d="M85.137,154.194
								c-5.167,5.964-3.967,23.271,3.338,36.498c7.305,13.227,13.401,19.055,13.401,19.055s10.872,0.761,23.442-13.923
								C125.318,195.823,100.363,136.619,85.137,154.194z"/>
						</defs>
						<clipPath id="SVGID_00000102531583754802022090000017048172897260154805_">
							<use xlink:href="#SVGID_00000167373277984381385470000000734832083534936451_"  style="overflow:visible;"/>
						</clipPath>
						
							<path style="clip-path:url(#SVGID_00000102531583754802022090000017048172897260154805_);fill:none;stroke:#FFFFFF;stroke-width:4;stroke-miterlimit:10;" d="
							M94.962,207.516c0,0,19.04-5.793,30.326-19.322"/>
						
							<path style="clip-path:url(#SVGID_00000102531583754802022090000017048172897260154805_);fill:none;stroke:#FFFFFF;stroke-width:4;stroke-miterlimit:10;" d="
							M89.624,202.219c0,0,19.04-5.793,30.326-19.322"/>
					</g>
				</g>
				<g>
					<path style="fill:#B31A28;" d="M237.189,142.442l-36.387,0.142c-2.247,0.009-4.061,1.837-4.052,4.084l0.088,22.541
						c0.009,2.247,1.837,4.061,4.084,4.052l14.855-0.058l-0.098,6.677l3.463-0.013l3.312-6.69l14.855-0.058
						c2.247-0.009,4.061-1.837,4.052-4.084l-0.088-22.541C241.264,144.247,239.436,142.433,237.189,142.442z"/>
					<path style="fill:#EE2638;" d="M233.727,142.456l-36.387,0.142c-2.247,0.009-4.061,1.837-4.052,4.084l0.088,22.541
						c0.009,2.247,1.837,4.061,4.084,4.052l14.855-0.058l3.364,6.664l3.312-6.69l14.855-0.058c2.247-0.009,4.061-1.837,4.052-4.084
						l-0.088-22.541C237.802,144.261,235.973,142.447,233.727,142.456z"/>
					<path style="fill:#FFFFFF;" d="M225.491,151.961c-0.993-2.033-4.169-2.884-6.257-2.231c-2.06,0.644-3.652,2.367-3.652,2.367
						s-0.007-0.006-0.011-0.01c-0.004,0.004-0.011,0.01-0.011,0.01s-1.606-1.71-3.671-2.338c-2.094-0.636-5.262,0.239-6.24,2.28
						c-1.438,3.003,0.334,7.153,5.539,11.322c2.243,1.797,4.426,2.658,4.426,2.658s0.007-0.006,0.011-0.009
						c0.004,0.003,0.011,0.009,0.011,0.009s2.175-0.878,4.405-2.692C225.212,159.117,226.953,154.953,225.491,151.961z"/>
				</g>
				<ellipse style="fill:#EE9787;" cx="126.064" cy="113.381" rx="2.932" ry="1.375"/>
				<ellipse style="fill:#EE9787;" cx="145.718" cy="113.381" rx="2.932" ry="1.375"/>
			</g>
			<path style="fill:#FFFFFF;" d="M174.684,50.334l8.036,3.169l-8.036,3.169c-2.792,1.101-5.001,3.311-6.102,6.102l-3.169,8.036
				l-3.169-8.036c-1.101-2.792-3.311-5.001-6.102-6.102l-8.036-3.169l8.036-3.169c2.792-1.101,5.001-3.311,6.102-6.102l3.169-8.036
				l3.169,8.036C169.683,47.024,171.893,49.233,174.684,50.334z"/>
			<path style="fill:#FFFFFF;" d="M183.34,124.245l4.591,1.811l-4.591,1.811c-1.595,0.629-2.858,1.892-3.487,3.487l-1.811,4.591
				l-1.811-4.591c-0.629-1.595-1.892-2.858-3.487-3.487l-4.591-1.811l4.591-1.811c1.595-0.629,2.858-1.892,3.487-3.487l1.811-4.591
				l1.811,4.591C180.482,122.354,181.745,123.616,183.34,124.245z"/>
			<path style="fill:#FFFFFF;" d="M434.294,247.195l4.592,1.811l-4.592,1.811c-1.595,0.629-2.858,1.892-3.487,3.487l-1.811,4.592
				l-1.811-4.592c-0.629-1.595-1.892-2.858-3.487-3.487l-4.591-1.811l4.591-1.811c1.595-0.629,2.858-1.892,3.487-3.487l1.811-4.592
				l1.811,4.592C431.437,245.303,432.699,246.566,434.294,247.195z"/>
			<path style="fill:#FFFFFF;" d="M164.764,138.951l1.708,0.674l-1.708,0.674c-0.594,0.234-1.063,0.704-1.298,1.297l-0.674,1.709
				l-0.674-1.709c-0.234-0.594-0.704-1.063-1.297-1.297l-1.709-0.674l1.709-0.674c0.593-0.234,1.063-0.704,1.297-1.297l0.674-1.709
				l0.674,1.709C163.7,138.247,164.17,138.717,164.764,138.951z"/>
			<path style="fill:#FFFFFF;" d="M453.294,278.218l1.708,0.674l-1.708,0.674c-0.594,0.234-1.063,0.704-1.297,1.297l-0.674,1.709
				l-0.674-1.709c-0.234-0.594-0.704-1.063-1.297-1.297l-1.708-0.674l1.708-0.674c0.594-0.234,1.063-0.704,1.297-1.297l0.674-1.709
				l0.674,1.709C452.231,277.514,452.701,277.984,453.294,278.218z"/>
			<path style="fill:#0064D6;" d="M38.333,175.355c3.98-23.294,21.528-26.341,27.097-12.682
				C71,176.333,31.667,214.377,38.333,175.355z"/>
			<path style="fill:#0064D6;" d="M74,140.439c5.411-3.532,11.667,5.762,4.667,10.495C71.667,155.667,65.667,145.878,74,140.439z"/>
			<path style="fill:#0064D6;" d="M424.5,144.75c-4.422-5.75-9.665-25.501,4.497-35.576c8.503-6.049,22.387,28.729,26.006,41.759
				C458.875,164.875,433.353,156.261,424.5,144.75z"/>
		</g>
		<g>
			<path style="fill:#FFFFFF;" d="M86.027,107.992c0,2.217-1.797,4.014-4.014,4.014c-2.217,0-4.014-1.797-4.014-4.014
				c0-2.217,1.797-4.014,4.014-4.014C84.23,103.978,86.027,105.775,86.027,107.992z"/>
			<circle style="fill:#FFFFFF;" cx="55.963" cy="60.808" r="4.192"/>
			<path style="fill:#FFFFFF;" d="M88.948,50.787c0,1.5-1.216,2.716-2.716,2.716c-1.5,0-2.716-1.216-2.716-2.716
				c0-1.5,1.216-2.716,2.716-2.716C87.732,48.071,88.948,49.287,88.948,50.787z"/>
			<path style="fill:#FFFFFF;" d="M75.861,270.431c0,1.066-0.864,1.931-1.93,1.931c-1.066,0-1.931-0.864-1.931-1.931
				c0-1.066,0.864-1.931,1.931-1.931C74.997,268.5,75.861,269.364,75.861,270.431z"/>
			<circle style="fill:#FFFFFF;" cx="183.36" cy="339.397" r="2.86"/>
			<path style="fill:#FFFFFF;" d="M423.304,387.77c0,1.159-0.939,2.098-2.098,2.098c-1.159,0-2.098-0.939-2.098-2.098
				c0-1.159,0.939-2.098,2.098-2.098C422.365,385.672,423.304,386.612,423.304,387.77z"/>
			<circle style="fill:#FFFFFF;" cx="433.25" cy="321.25" r="1.75"/>
			<path style="fill:#FFFFFF;" d="M459.596,408.267c0,2.284-1.852,4.137-4.137,4.137c-2.285,0-4.137-1.852-4.137-4.137
				c0-2.285,1.852-4.137,4.137-4.137C457.744,404.131,459.596,405.983,459.596,408.267z"/>
			<path style="fill:#FFFFFF;" d="M456.055,442.393c0,1.307-1.059,2.366-2.366,2.366c-1.307,0-2.366-1.059-2.366-2.366
				s1.059-2.366,2.366-2.366C454.996,440.027,456.055,441.087,456.055,442.393z"/>
			<path style="fill:#FFFFFF;" d="M464.004,308.692c0,2.36-1.913,4.272-4.272,4.272c-2.36,0-4.272-1.913-4.272-4.272
				c0-2.36,1.913-4.272,4.272-4.272C462.092,304.419,464.004,306.332,464.004,308.692z"/>
			<circle style="fill:#FFFFFF;" cx="472.318" cy="178.063" r="1.818"/>
			<circle style="fill:#FFFFFF;" cx="424.221" cy="57.837" r="1.221"/>
			<path style="fill:#FFFFFF;" d="M391.507,31.239c0,0.692-0.561,1.254-1.254,1.254c-0.692,0-1.254-0.561-1.254-1.254
				c0-0.692,0.561-1.254,1.254-1.254C390.946,29.985,391.507,30.547,391.507,31.239z"/>
			<circle style="fill:#FFFFFF;" cx="61.043" cy="288.372" r="1.043"/>
			<path style="fill:#FFFFFF;" d="M67.986,26.507c0,0.556-0.451,1.007-1.007,1.007c-0.556,0-1.007-0.451-1.007-1.007
				S66.424,25.5,66.98,25.5C67.536,25.5,67.986,25.951,67.986,26.507z"/>
			<path style="fill:#FFFFFF;" d="M122.525,34.006c0,0.835-0.677,1.513-1.513,1.513c-0.835,0-1.513-0.677-1.513-1.513
				c0-0.836,0.677-1.513,1.513-1.513C121.848,32.493,122.525,33.17,122.525,34.006z"/>
		</g>
	</g>
</g>
</svg>
