<?xml version="1.0" encoding="utf-8"?>
<!-- Generator: Adobe Illustrator 27.5.0, SVG Export Plug-In . SVG Version: 6.00 Build 0)  -->
<svg version="1.1" xmlns="http://www.w3.org/2000/svg" xmlns:xlink="http://www.w3.org/1999/xlink" x="0px" y="0px"
	 viewBox="0 0 2500 2000" style="enable-background:new 0 0 2500 2000;" xml:space="preserve">
<g id="BG">
	<rect style="fill:#005AE6;" width="2500" height="2000"/>
</g>
<g id="elements">
	<g id="plants">
		<g>
			<path style="fill:#80B2FF;" d="M162.994,1446.429c4.03,36.883,53.403,28.754,86.126,56.278
				c32.723,27.524,0.303,65.125,75.324,73.189c46.206,4.967,42.95-14.386,88.892,33.122c40.448,41.826,47.987-27.148,93.237-16.235
				c58.384,14.081,62.816-100.86,9.051-123.213c-53.764-22.353-80.13,8.949-89.992-39.335c-9.862-48.284-46.09-66.408-92.103-55.616
				c-56.951,13.357-48.908,63.165-78.246,35.77C225.944,1382.995,157.663,1397.646,162.994,1446.429z"/>
			<path style="fill:#005CEA;" d="M586.139,1596.922c-164.069-127.261-357.031-146.686-358.972-146.871
				c-7.349-0.707-6.5-9.547,0.849-8.84c1.968,0.191,198.753,20.395,364.832,149.213L586.139,1596.922z"/>
		</g>
		<g>
			<path style="fill:#4D93FF;" d="M351.173,1319.812c-9.548,23.549,22.863,34.682,33.656,61.906
				c10.792,27.224-17.957,50.39,24.66,79.617c26.248,18.001,37.258-16.25,62.285,14.761c25.027,31.011,12.828,39.941,34.95,48.144
				c38.567,14.3,79.124-45.66,53.964-76.599c-25.16-30.939-59.465-19.932-49.73-52.249c9.734-32.317,12.975-46.026-18.275-54.462
				c-38.678-10.442-65.365,13.171-74.158-12.876C409.733,1302.005,363.802,1288.664,351.173,1319.812z"/>
			<path style="fill:#005CEA;" d="M586.139,1596.922l6.709-5.541c-58.306-131.611-199.647-252.846-200.774-253.598
				c-4.802-3.214-8.183,1.838-3.381,5.052C389.805,1343.58,528.569,1466.975,586.139,1596.922z"/>
		</g>
	</g>
	<g id="cloud">
		<g>
			<g>
				<path style="fill:#80B2FF;" d="M2209.853,825.247h-74.091v-91.51h74.091V825.247z M2139.688,821.32h66.239v-83.656h-66.239
					V821.32z"/>
				<rect x="2160.679" y="750.08" style="fill:#0041A6;" width="36.294" height="5.696"/>
				<rect x="2149.946" y="763.462" style="fill:#0041A6;" width="47.028" height="5.696"/>
				<rect x="2149.946" y="776.845" style="fill:#0041A6;" width="47.028" height="5.696"/>
				<rect x="2149.946" y="790.228" style="fill:#0041A6;" width="47.028" height="5.696"/>
				<rect x="2149.946" y="803.611" style="fill:#0041A6;" width="47.028" height="5.696"/>
			</g>
			<g>
				<rect x="2148.956" y="746.437" style="fill:#80B2FF;" width="70.165" height="87.583"/>
				<rect x="2171.911" y="760.816" style="fill:#005CEA;" width="36.294" height="5.696"/>
				<rect x="2161.178" y="774.199" style="fill:#005CEA;" width="47.028" height="5.696"/>
				<rect x="2161.178" y="787.582" style="fill:#005CEA;" width="47.028" height="5.696"/>
				<rect x="2161.178" y="800.964" style="fill:#005CEA;" width="47.028" height="5.696"/>
				<rect x="2161.178" y="814.347" style="fill:#005CEA;" width="47.028" height="5.696"/>
			</g>
		</g>
		<g>
			<rect x="1807.582" y="481.605" style="fill:#97C6FF;" width="6.545" height="4.908"/>
			<path style="fill:#97C6FF;" d="M1814.127,671.212h-6.545v-10.261h6.545V671.212z M1814.127,650.69h-6.545v-10.261h6.545V650.69z
				 M1814.127,630.168h-6.545v-10.261h6.545V630.168z M1814.127,609.646h-6.545v-10.261h6.545V609.646z M1814.127,589.124h-6.545
				v-10.261h6.545V589.124z M1814.127,568.602h-6.545v-10.261h6.545V568.602z M1814.127,548.08h-6.545v-10.261h6.545V548.08z
				 M1814.127,527.558h-6.545v-10.261h6.545V527.558z M1814.127,507.036h-6.545v-10.261h6.545V507.036z"/>
			<rect x="1807.582" y="681.473" style="fill:#97C6FF;" width="6.545" height="4.908"/>
		</g>
		<g>
			<rect x="1754.105" y="481.605" style="fill:#97C6FF;" width="6.545" height="4.908"/>
			<path style="fill:#97C6FF;" d="M382.331,920.313h-6.544v-9.834h6.544V920.313z M382.456,900.889l-6.526-0.481
				c0.257-3.49,0.865-6.96,1.809-10.313l6.3,1.773C383.213,894.801,382.681,897.835,382.456,900.889z M387.396,883.353l-5.815-3.001
				c1.6-3.1,3.52-6.052,5.708-8.776l5.103,4.099C390.476,878.058,388.795,880.642,387.396,883.353z M398.812,869.136l-4.189-5.027
				c2.685-2.237,5.603-4.211,8.673-5.866l3.105,5.761C403.715,865.451,401.162,867.178,398.812,869.136z M414.857,860.491
				l-1.888-6.266c3.336-1.005,6.795-1.677,10.28-1.996l0.597,6.517C420.797,859.026,417.773,859.613,414.857,860.491z
				 M1701.95,858.554h-9.834v-6.544h9.834V858.554z M1682.282,858.554h-9.834v-6.544h9.834V858.554z M1662.614,858.554h-9.834
				v-6.544h9.834V858.554z M1642.946,858.554h-9.833v-6.544h9.833V858.554z M1623.279,858.554h-9.834v-6.544h9.834V858.554z
				 M1603.611,858.554h-9.834v-6.544h9.834V858.554z M1583.943,858.554h-9.834v-6.544h9.834V858.554z M1564.275,858.554h-9.834
				v-6.544h9.834V858.554z M1544.607,858.554h-9.834v-6.544h9.834V858.554z M1524.939,858.554h-9.834v-6.544h9.834V858.554z
				 M1505.271,858.554h-9.833v-6.544h9.833V858.554z M1485.604,858.554h-9.834v-6.544h9.834V858.554z M1465.937,858.554h-9.834
				v-6.544h9.834V858.554z M1446.269,858.554h-9.834v-6.544h9.834V858.554z M1426.601,858.554h-9.834v-6.544h9.834V858.554z
				 M1406.933,858.554h-9.834v-6.544h9.834V858.554z M1387.265,858.554h-9.833v-6.544h9.833V858.554z M1367.598,858.554h-9.834
				v-6.544h9.834V858.554z M1347.93,858.554h-9.834v-6.544h9.834V858.554z M1328.262,858.554h-9.834v-6.544h9.834V858.554z
				 M1308.594,858.554h-9.834v-6.544h9.834V858.554z M1288.926,858.554h-9.834v-6.544h9.834V858.554z M1269.258,858.554h-9.834
				v-6.544h9.834V858.554z M1249.591,858.554h-9.835v-6.544h9.835V858.554z M1229.922,858.554h-9.833v-6.544h9.833V858.554z
				 M1210.255,858.554h-9.834v-6.544h9.834V858.554z M1190.587,858.554h-9.834v-6.544h9.834V858.554z M1170.919,858.554h-9.834
				v-6.544h9.834V858.554z M1151.251,858.554h-9.834v-6.544h9.834V858.554z M1131.583,858.554h-9.834v-6.544h9.834V858.554z
				 M1111.916,858.554h-9.834v-6.544h9.834V858.554z M1092.248,858.554h-9.834v-6.544h9.834V858.554z M1072.58,858.554h-9.834
				v-6.544h9.834V858.554z M1052.912,858.554h-9.834v-6.544h9.834V858.554z M1033.244,858.554h-9.834v-6.544h9.834V858.554z
				 M1013.576,858.554h-9.834v-6.544h9.834V858.554z M993.908,858.554h-9.833v-6.544h9.833V858.554z M974.241,858.554h-9.834v-6.544
				h9.834V858.554z M954.573,858.554h-9.834v-6.544h9.834V858.554z M934.905,858.554h-9.834v-6.544h9.834V858.554z M915.237,858.554
				h-9.834v-6.544h9.834V858.554z M895.569,858.554h-9.834v-6.544h9.834V858.554z M875.901,858.554h-9.834v-6.544h9.834V858.554z
				 M856.233,858.554h-9.834v-6.544h9.834V858.554z M836.565,858.554h-9.834v-6.544h9.834V858.554z M816.897,858.554h-9.834v-6.544
				h9.834V858.554z M797.229,858.554h-9.834v-6.544h9.834V858.554z M777.561,858.554h-9.834v-6.544h9.834V858.554z M757.894,858.554
				h-9.834v-6.544h9.834V858.554z M738.226,858.554h-9.834v-6.544h9.834V858.554z M718.558,858.554h-9.834v-6.544h9.834V858.554z
				 M698.89,858.554h-9.834v-6.544h9.834V858.554z M679.222,858.554h-9.834v-6.544h9.834V858.554z M659.554,858.554h-9.834v-6.544
				h9.834V858.554z M639.886,858.554h-9.833v-6.544h9.833V858.554z M620.219,858.554h-9.834v-6.544h9.834V858.554z M600.551,858.554
				h-9.834v-6.544h9.834V858.554z M580.883,858.554h-9.834v-6.544h9.834V858.554z M561.215,858.554h-9.834v-6.544h9.834V858.554z
				 M541.547,858.554h-9.834v-6.544h9.834V858.554z M521.879,858.554h-9.834v-6.544h9.834V858.554z M502.211,858.554h-9.834v-6.544
				h9.834V858.554z M482.543,858.554h-9.833v-6.544h9.833V858.554z M462.875,858.554h-9.834v-6.544h9.834V858.554z M443.207,858.554
				h-9.834v-6.544h9.834V858.554z M1712.006,858.43l-0.449-6.529c3.055-0.21,6.092-0.728,9.026-1.54l1.744,6.308
				C1718.971,857.597,1715.498,858.19,1712.006,858.43z M1732.09,852.874l-2.973-5.83c2.716-1.385,5.307-3.053,7.701-4.958
				l4.074,5.121C1738.156,849.384,1735.194,851.291,1732.09,852.874z M1748.394,839.907l-5.008-4.212
				c1.971-2.344,3.709-4.889,5.168-7.565l5.746,3.132C1752.633,834.321,1750.646,837.23,1748.394,839.907z M1758.362,821.608
				l-6.257-1.918c0.893-2.912,1.494-5.933,1.788-8.98l6.514,0.628C1760.072,814.821,1759.384,818.277,1758.362,821.608z
				 M1760.65,801.199h-6.545v-9.834h6.545V801.199z M1760.65,781.531h-6.545v-9.834h6.545V781.531z M1760.65,761.863h-6.545v-9.834
				h6.545V761.863z M1760.65,742.195h-6.545v-9.833h6.545V742.195z M1760.65,722.528h-6.545v-9.834h6.545V722.528z M1760.65,702.86
				h-6.545v-9.834h6.545V702.86z M1760.65,683.192h-6.545v-9.834h6.545V683.192z M1760.65,663.524h-6.545v-9.834h6.545V663.524z
				 M1760.65,643.856h-6.545v-9.834h6.545V643.856z M1760.65,624.188h-6.545v-9.834h6.545V624.188z M1760.65,604.521h-6.545v-9.833
				h6.545V604.521z M1760.65,584.853h-6.545v-9.834h6.545V584.853z M1760.65,565.185h-6.545v-9.834h6.545V565.185z M1760.65,545.517
				h-6.545v-9.834h6.545V545.517z M1760.65,525.85h-6.545v-9.834h6.545V525.85z M1760.65,506.182h-6.545v-9.834h6.545V506.182z"/>
			<rect x="375.787" y="930.247" style="fill:#97C6FF;" width="6.544" height="4.908"/>
		</g>
		<g>
			<rect x="1846.936" y="481.605" style="fill:#97C6FF;" width="6.545" height="4.908"/>
			<path style="fill:#97C6FF;" d="M1853.48,588.635h-6.545v-10.212h6.545V588.635z M1853.48,568.211h-6.545v-10.212h6.545V568.211z
				 M1853.48,547.787h-6.545v-10.212h6.545V547.787z M1853.48,527.362h-6.545V517.15h6.545V527.362z M1853.48,506.938h-6.545
				v-10.212h6.545V506.938z"/>
			<polygon style="fill:#97C6FF;" points="1855.116,607.027 1846.936,607.027 1846.936,598.847 1853.48,598.847 1853.48,600.483 
				1855.116,600.483 			"/>
			<path style="fill:#97C6FF;" d="M2091.137,895.711h-6.545v-9.762h6.545V895.711z M2091.137,876.186h-6.545v-9.762h6.545V876.186z
				 M2091.137,856.662h-6.545v-9.762h6.545V856.662z M2091.137,837.137h-6.545v-9.762h6.545V837.137z M2091.137,817.612h-6.545
				v-9.762h6.545V817.612z M2091.137,798.088h-6.545v-9.762h6.545V798.088z M2091.137,778.563h-6.545v-9.762h6.545V778.563z
				 M2091.137,759.039h-6.545v-9.762h6.545V759.039z M2091.137,739.514h-6.545v-9.762h6.545V739.514z M2091.137,719.99h-6.545
				v-9.762h6.545V719.99z M2091.137,700.465h-6.545v-9.762h6.545V700.465z M2091.137,680.94h-6.545v-9.762h6.545V680.94z
				 M2091.137,661.416h-6.545v-9.762h6.545V661.416z M2084.559,642.027c-0.124-2.995-0.613-5.96-1.455-8.814l6.277-1.851
				c0.993,3.368,1.57,6.865,1.717,10.394L2084.559,642.027z M2079.542,625.023c-1.516-2.569-3.348-4.952-5.446-7.084l4.664-4.591
				c2.473,2.512,4.633,5.321,6.419,8.35L2079.542,625.023z M2067.094,612.377c-2.549-1.561-5.285-2.803-8.132-3.692l1.951-6.247
				c3.36,1.05,6.59,2.516,9.599,4.358L2067.094,612.377z M2050.172,607.088c-0.702-0.04-1.41-0.061-2.122-0.061h-7.449v-6.544h7.449
				c0.835,0,1.675,0.024,2.498,0.071L2050.172,607.088z M2030.838,607.027h-9.763v-6.544h9.763V607.027z M2011.313,607.027h-9.763
				v-6.544h9.763V607.027z M1991.789,607.027h-9.763v-6.544h9.763V607.027z M1972.264,607.027h-9.762v-6.544h9.762V607.027z
				 M1952.739,607.027h-9.762v-6.544h9.762V607.027z M1933.215,607.027h-9.763v-6.544h9.763V607.027z M1913.69,607.027h-9.763
				v-6.544h9.763V607.027z M1894.166,607.027h-9.763v-6.544h9.763V607.027z M1874.642,607.027h-9.763v-6.544h9.763V607.027z"/>
			<rect x="2084.592" y="905.514" style="fill:#97C6FF;" width="6.545" height="4.908"/>
		</g>
		<g>
			<path style="fill:#80B2FF;" d="M1766.638,481.188c0.13-1.679,0.217-3.37,0.217-5.081c0-35.819-29.037-64.856-64.856-64.856
				c-35.819,0-64.856,29.037-64.856,64.856c0,1.712,0.087,3.403,0.217,5.081H1766.638z"/>
			<path style="fill:#80B2FF;" d="M1979.703,481.188c0.13-1.679,0.217-3.37,0.217-5.081c0-35.819-29.037-64.856-64.856-64.856
				c-35.819,0-64.856,29.037-64.856,64.856c0,1.712,0.087,3.403,0.217,5.081H1979.703z"/>
			<path style="fill:#80B2FF;" d="M1905.102,481.188c0.503-3.959,0.762-7.994,0.762-12.09c0-52.472-42.537-95.01-95.01-95.01
				c-52.472,0-95.01,42.538-95.01,95.01c0,4.095,0.26,8.13,0.762,12.09H1905.102z"/>
		</g>
	</g>
	<g id="card">
		<path style="fill:#4D93FF;" d="M726.37,1219.585l-441.913,0c-9.304,0-16.846-7.542-16.846-16.846l0-250.739
			c0-9.304,7.542-16.846,16.846-16.846l441.913,0c9.304,0,16.846,7.542,16.846,16.846l0,250.739
			C743.215,1212.043,735.673,1219.585,726.37,1219.585z"/>
		<rect x="267.611" y="988.872" style="fill:#0046B3;" width="475.604" height="49.08"/>
		<path style="fill:#D1F5FF;" d="M376.551,1165.014h-69.929c-4.445,0-8.048,3.603-8.048,8.048l0,0c0,4.445,3.603,8.049,8.048,8.049
			h69.929c4.445,0,8.048-3.604,8.048-8.049l0,0C384.599,1168.618,380.996,1165.014,376.551,1165.014z"/>
		<path style="fill:#D1F5FF;" d="M484.088,1165.014l-69.929,0c-4.445,0-8.049,3.603-8.049,8.048l0,0
			c0,4.445,3.604,8.049,8.049,8.049l69.929,0c4.445,0,8.048-3.603,8.048-8.048l0,0
			C492.137,1168.618,488.533,1165.014,484.088,1165.014z"/>
		<path style="fill:#D1F5FF;" d="M591.625,1165.014h-69.929c-4.445,0-8.049,3.604-8.049,8.049l0,0c0,4.445,3.603,8.048,8.049,8.048
			h69.929c4.445,0,8.049-3.603,8.049-8.048l0,0C599.674,1168.618,596.07,1165.014,591.625,1165.014z"/>
		<path style="fill:#D1F5FF;" d="M699.163,1165.014h-69.929c-4.445,0-8.049,3.603-8.049,8.049l0,0c0,4.445,3.604,8.048,8.049,8.048
			h69.929c4.445,0,8.049-3.603,8.049-8.048l0,0C707.211,1168.618,703.608,1165.014,699.163,1165.014z"/>
		<path style="fill:#D1F5FF;" d="M303.4,949.591L303.4,949.591c-4.906,0-8.883,3.977-8.883,8.883v3.121
			c0,4.906,3.977,8.883,8.883,8.883l0,0c4.906,0,8.883-3.977,8.883-8.883v-3.121C312.283,953.568,308.306,949.591,303.4,949.591z"/>
		<path style="fill:#D1F5FF;" d="M322.538,960.034L322.538,960.034c0,5.768,4.676,10.444,10.444,10.444h37.014
			c5.768,0,10.443-4.676,10.443-10.443v0c0-5.768-4.676-10.443-10.443-10.443h-37.014
			C327.214,949.591,322.538,954.266,322.538,960.034z"/>
		<path style="fill:#FFBD73;" d="M317.683,1064.353h47.806c7.662,0,13.874,6.211,13.874,13.874v41.216
			c0,7.662-6.211,13.874-13.874,13.874h-47.806c-7.662,0-13.874-6.211-13.874-13.874v-41.216
			C303.81,1070.565,310.021,1064.353,317.683,1064.353z"/>
	</g>
	<g id="Gear">
		<g>
			<path style="fill:none;stroke:#D2E4FF;stroke-width:3.9266;stroke-miterlimit:10;" d="M1085.535,604.456
				c6.73-26.559,7.836-53.386,3.994-78.96l8.124-1.22l16.044-2.399l0.204-0.044c-4.353-29.272-14.357-57.178-29.336-82.196
				l-21.131,12.588c-13.558-22.633-31.435-42.695-53.066-58.593l14.669-19.821c-22.875-17.084-49.505-30.005-78.874-37.447
				l-6.064,23.93c-26.652-6.754-53.387-7.836-78.96-3.995l-3.664-24.371c-29.273,4.351-57.2,14.445-82.196,29.335l12.589,21.133
				c-22.635,13.558-42.695,31.434-58.595,53.065l-19.82-14.669c-17.082,22.874-30.006,49.504-37.448,78.874l23.932,6.064
				c-6.753,26.651-7.838,53.386-3.996,78.959l-17.245,2.576l-7.034,1.112l-0.091-0.023c4.351,29.27,14.445,57.2,29.334,82.195
				l21.134-12.589c13.558,22.634,31.523,42.717,53.154,58.617l-14.67,19.821c22.876,17.083,49.416,29.982,78.785,37.425
				l6.064-23.931c26.649,6.753,53.477,7.86,79.05,4.019l2.818,18.945l0.844,5.424c29.273-4.351,57.11-14.468,82.105-29.357
				l-12.586-21.133c22.633-13.558,42.717-31.523,58.707-53.132l19.82,14.669c16.994-22.897,29.892-49.438,37.335-78.807
				L1085.535,604.456z M863.929,660.878c-58.467-14.816-93.795-74.125-78.98-132.592c14.793-58.376,74.103-93.702,132.569-78.886
				c58.376,14.793,93.703,74.1,78.91,132.476C981.613,640.343,922.305,675.671,863.929,660.878z"/>
		</g>
		<g>
			<path style="fill:none;stroke:#D2E4FF;stroke-width:3.9266;stroke-miterlimit:10;" d="M600.499,635.567
				c-8.987-11.284-19.88-20.295-31.823-26.834l2.077-3.794l4.107-7.489l0.047-0.099c-13.656-7.503-28.54-12.202-43.799-13.895
				l-1.457,12.868c-13.806-1.529-27.912-0.429-41.467,3.572l-3.634-12.464c-14.449,4.144-28.35,11.189-40.828,21.127l8.098,10.167
				c-11.323,9.019-20.295,19.88-26.834,31.822l-11.382-6.23c-7.504,13.656-12.172,28.578-13.895,43.799l12.869,1.457
				c-1.53,13.807-0.429,27.911,3.571,41.468l-12.464,3.633c4.145,14.449,11.188,28.351,21.127,40.828l10.168-8.098
				c9.018,11.323,19.879,20.296,31.822,26.834l-4.415,8.049l-1.775,3.303l-0.039,0.031c13.655,7.503,28.578,12.172,43.798,13.896
				l1.458-12.869c13.807,1.529,27.949,0.399,41.506-3.602l3.634,12.465c14.449-4.145,28.313-11.159,40.79-21.097l-8.098-10.167
				c11.322-9.018,20.334-19.91,26.873-31.853l8.839,4.856l2.542,1.374c7.504-13.656,12.133-28.547,13.857-43.768l-12.868-1.458
				c1.529-13.806,0.399-27.949-3.564-41.536l12.464-3.633c-4.182-14.419-11.197-28.282-21.135-40.76L600.499,635.567z
				 M553.535,746.429c-24.84,19.785-60.956,15.694-80.741-9.145c-19.754-24.801-15.663-60.917,9.177-80.701
				c24.801-19.754,60.916-15.663,80.67,9.138C582.427,690.56,578.336,726.675,553.535,746.429z"/>
		</g>
		<g>
			<path style="fill:none;stroke:#00224D;stroke-width:3.9266;stroke-miterlimit:10;" d="M2198.17,1431.058
				c-10.371-13.021-22.941-23.42-36.723-30.965l2.397-4.378l4.739-8.642l0.054-0.115c-15.759-8.658-32.935-14.08-50.543-16.034
				l-1.681,14.849c-15.932-1.764-32.209-0.495-47.853,4.122l-4.193-14.384c-16.674,4.783-32.716,12.912-47.114,24.38l9.345,11.732
				c-13.067,10.408-23.42,22.941-30.966,36.722l-13.135-7.189c-8.659,15.758-14.046,32.978-16.035,50.543l14.85,1.682
				c-1.765,15.933-0.495,32.208,4.121,47.853l-14.383,4.193c4.783,16.673,12.911,32.716,24.38,47.115l11.733-9.345
				c10.407,13.066,22.94,23.421,36.722,30.966l-5.095,9.288l-2.049,3.811l-0.045,0.036c15.757,8.658,32.978,14.046,50.542,16.035
				l1.682-14.851c15.933,1.765,32.252,0.46,47.896-4.156l4.193,14.384c16.674-4.783,32.672-12.877,47.071-24.346l-9.345-11.732
				c13.065-10.407,23.465-22.975,31.01-36.757l10.2,5.603l2.934,1.586c8.659-15.758,14.001-32.943,15.991-50.507l-14.85-1.683
				c1.764-15.932,0.46-32.253-4.113-47.932l14.383-4.193c-4.826-16.639-12.921-32.636-24.389-47.035L2198.17,1431.058z
				 M2143.976,1558.991c-28.664,22.831-70.341,18.111-93.172-10.553c-22.796-28.62-18.074-70.296,10.59-93.127
				c28.62-22.796,70.295-18.075,93.091,10.545C2177.316,1494.519,2172.595,1536.195,2143.976,1558.991z"/>
		</g>
	</g>
</g>
<g id="shadow">
	<path style="fill:#003C99;" d="M2200.313,1755.473H353.656c-6.043,0-10.942-4.899-10.942-10.942l0,0
		c0-6.043,4.899-10.942,10.942-10.942h1846.657c6.043,0,10.942,4.899,10.942,10.942l0,0
		C2211.255,1750.574,2206.356,1755.473,2200.313,1755.473z"/>
</g>
<g id="laptop">
	<g id="laptop_1_">
		<g>
			<path style="fill:#B3D1FF;" d="M2023.614,1677.996H541.52c-19.941,0-36.107-16.165-36.107-36.107V722.138
				c0-19.941,16.166-36.107,36.107-36.107h1482.095c19.941,0,36.107,16.165,36.107,36.107v919.752
				C2059.721,1661.831,2043.556,1677.996,2023.614,1677.996z"/>
		</g>
		<path d="M541.519,1671.295c-16.214,0-29.405-13.191-29.405-29.406V722.138c0-16.214,13.191-29.405,29.405-29.405h1482.095
			c16.214,0,29.405,13.191,29.405,29.405v919.751c0,16.215-13.191,29.406-29.405,29.406H541.519z"/>
		<g>
			<rect x="557.911" y="726.136" style="fill:#005CEA;" width="1450.882" height="907.148"/>
		</g>
		<path style="fill:#599AFF;" d="M2166.038,1677.993v24.16c0,1.232-0.065,2.452-0.22,3.64
			c-1.792,15.648-15.087,27.799-31.219,27.799H410.487c-16.132,0-29.416-12.151-31.208-27.799c-0.154-1.188-0.22-2.408-0.22-3.64
			v-24.16H2166.038z"/>
		<path style="fill:#406EFF;" d="M2165.818,1705.793c-1.792,15.648-15.087,27.799-31.219,27.799H410.487
			c-16.132,0-29.416-12.151-31.208-27.799H2165.818z"/>
	</g>
	<g id="login">
		<path style="opacity:0.3;fill:#80B2FF;" d="M1689.578,1463.531H886.274c-21.964,0-39.769-17.805-39.769-39.769V958.331
			c0-21.964,17.805-39.769,39.769-39.769h803.303c21.964,0,39.769,17.805,39.769,39.769v465.431
			C1729.347,1445.726,1711.542,1463.531,1689.578,1463.531z"/>
		<g>
			<path style="fill:#FF9F34;" d="M1421.714,1322.16h-129.695c-10.974,0-19.952-8.979-19.952-19.952v0
				c0-10.974,8.979-19.952,19.952-19.952h129.695c10.974,0,19.952,8.979,19.952,19.952v0
				C1441.666,1313.182,1432.688,1322.16,1421.714,1322.16z"/>
			<path style="fill:#FFFFFF;" d="M1515.901,1163.189h-282.997c-10.974,0-19.952-8.979-19.952-19.952v0
				c0-10.974,8.979-19.952,19.952-19.952h282.997c10.974,0,19.952,8.979,19.952,19.952v0
				C1535.854,1154.21,1526.875,1163.189,1515.901,1163.189z"/>
			<path style="fill:#FFFFFF;" d="M1515.901,1238.303h-282.997c-10.974,0-19.952-8.979-19.952-19.952v0
				c0-10.974,8.979-19.952,19.952-19.952h282.997c10.974,0,19.952,8.979,19.952,19.952v0
				C1535.854,1229.325,1526.875,1238.303,1515.901,1238.303z"/>
			<g>
				<path style="fill:#80B2FF;" d="M1280.786,1220.119c0,3.88-3.145,7.025-7.025,7.025s-7.025-3.145-7.025-7.025
					c0-3.88,3.145-7.025,7.025-7.025S1280.786,1216.24,1280.786,1220.119z"/>
				<path style="fill:#80B2FF;" d="M1304.871,1220.119c0,3.88-3.145,7.025-7.025,7.025c-3.88,0-7.025-3.145-7.025-7.025
					c0-3.88,3.145-7.025,7.025-7.025C1301.726,1213.094,1304.871,1216.24,1304.871,1220.119z"/>
				<path style="fill:#80B2FF;" d="M1328.955,1220.119c0,3.88-3.145,7.025-7.025,7.025s-7.025-3.145-7.025-7.025
					c0-3.88,3.145-7.025,7.025-7.025S1328.955,1216.24,1328.955,1220.119z"/>
				<path style="fill:#80B2FF;" d="M1353.04,1220.119c0,3.88-3.145,7.025-7.025,7.025c-3.88,0-7.025-3.145-7.025-7.025
					c0-3.88,3.145-7.025,7.025-7.025C1349.894,1213.094,1353.04,1216.24,1353.04,1220.119z"/>
				<path style="fill:#80B2FF;" d="M1377.124,1220.119c0,3.88-3.145,7.025-7.025,7.025s-7.025-3.145-7.025-7.025
					c0-3.88,3.145-7.025,7.025-7.025S1377.124,1216.24,1377.124,1220.119z"/>
				<path style="fill:#80B2FF;" d="M1401.208,1220.119c0,3.88-3.145,7.025-7.025,7.025c-3.88,0-7.025-3.145-7.025-7.025
					c0-3.88,3.145-7.025,7.025-7.025C1398.063,1213.094,1401.208,1216.24,1401.208,1220.119z"/>
				<path style="fill:#80B2FF;" d="M1425.293,1220.119c0,3.88-3.145,7.025-7.025,7.025c-3.879,0-7.025-3.145-7.025-7.025
					c0-3.88,3.145-7.025,7.025-7.025C1422.148,1213.094,1425.293,1216.24,1425.293,1220.119z"/>
				<path style="fill:#80B2FF;" d="M1449.377,1220.119c0,3.88-3.145,7.025-7.025,7.025c-3.88,0-7.025-3.145-7.025-7.025
					c0-3.88,3.145-7.025,7.025-7.025C1446.232,1213.094,1449.377,1216.24,1449.377,1220.119z"/>
				<path style="fill:#80B2FF;" d="M1473.462,1220.119c0,3.88-3.145,7.025-7.025,7.025c-3.88,0-7.025-3.145-7.025-7.025
					c0-3.88,3.145-7.025,7.025-7.025C1470.316,1213.094,1473.462,1216.24,1473.462,1220.119z"/>
			</g>
			<g>
				<circle style="fill:#FFFFFF;" cx="1365.684" cy="1036.116" r="41.677"/>
				<g>
					<g>
						<path style="fill:#005CEA;" d="M1365.744,1034.438c4.068,0,7.825-1.982,10.225-5.008c1.773-2.191,2.817-5.008,2.817-8.139
							c0-7.199-5.844-13.147-13.042-13.147c-7.303,0-13.147,5.948-13.147,13.147c0,3.131,1.042,5.948,2.817,8.139
							C1357.814,1032.457,1361.569,1034.438,1365.744,1034.438z"/>
					</g>
					<path style="fill:#005CEA;" d="M1388.844,1057.864c0,8.296-46.329,8.296-46.329,0l0.015-9.668
						c1.831-13.217,42.549-13.772,46.323,0L1388.844,1057.864z"/>
				</g>
			</g>
			<path style="fill:#4D4D4D;" d="M1275.715,1214.672v-1.07c0-4.328-3.521-7.851-7.851-7.851c-4.33,0-7.851,3.522-7.851,7.851v1.07
				h-1.192v14.149c0,2.445,18.135,2.445,18.135,0v-14.149H1275.715z M1262.812,1213.602c0-2.716,1.675-5.182,5.052-5.182
				c3.375,0,5.106,2.309,5.106,5.182v1.07h-10.158V1213.602z M1269.2,1221.8v4.086c0,0.734-0.63,1.258-1.364,1.258
				c-0.734,0-1.256-0.523-1.256-1.258v-4.086c-0.734-0.42-1.259-1.154-1.259-2.097c0-1.363,1.154-2.515,2.515-2.515
				c1.364,0,2.515,1.153,2.515,2.515C1270.351,1220.645,1269.827,1221.38,1269.2,1221.8z"/>
			<g>
				<g>
					<g>
						<path style="fill:#4D4D4D;" d="M1241.706,1141.789c1.588,0,3.054-0.774,3.991-1.955c0.692-0.855,1.1-1.955,1.1-3.177
							c0-2.81-2.281-5.131-5.091-5.131c-2.851,0-5.131,2.322-5.131,5.131c0,1.222,0.407,2.322,1.1,3.177
							C1238.61,1141.016,1240.076,1141.789,1241.706,1141.789z"/>
					</g>
					<path style="fill:#4D4D4D;" d="M1250.722,1150.933c0,3.238-18.176,3.238-18.176,0l0.098-3.773
						c0.715-5.159,16.608-5.375,18.081,0L1250.722,1150.933z"/>
				</g>
				<path style="fill:#80B2FF;" d="M1346.082,1149.092h-73.49c-3.22,0-5.855-2.635-5.855-5.855l0,0c0-3.22,2.635-5.855,5.855-5.855
					h73.49c3.22,0,5.855,2.635,5.855,5.855l0,0C1351.937,1146.457,1349.303,1149.092,1346.082,1149.092z"/>
				<path style="fill:#80B2FF;" d="M1300.538,1106.37h-70.959c-3.22,0-5.855-2.635-5.855-5.855l0,0c0-3.22,2.635-5.855,5.855-5.855
					h70.959c3.22,0,5.855,2.635,5.855,5.855l0,0C1306.393,1103.735,1303.759,1106.37,1300.538,1106.37z"/>
				<path style="fill:#80B2FF;" d="M1443.009,1149.092h-73.49c-3.22,0-5.855-2.635-5.855-5.855l0,0c0-3.22,2.635-5.855,5.855-5.855
					h73.49c3.22,0,5.855,2.635,5.855,5.855l0,0C1448.864,1146.457,1446.229,1149.092,1443.009,1149.092z"/>
			</g>
			<g>
				<path style="fill:#FFFFFF;" d="M991.434,1140.618v103.497c0,11.501,140.728,11.501,140.728,0v-103.497H991.434z"/>
				<g>
					<circle style="fill:#005CEA;" cx="1061.798" cy="1179.71" r="17.374"/>
					<path style="fill:#005CEA;" d="M1061.798,1232.034L1061.798,1232.034c-3.933,0-7.121-3.188-7.121-7.121v-39.849h14.243v39.849
						C1068.919,1228.846,1065.731,1232.034,1061.798,1232.034z"/>
				</g>
				<path style="fill:#FFFFFF;" d="M1119.83,1133.245h-14.243v-6.971c0-24.146-19.644-43.79-43.79-43.79
					c-24.146,0-43.79,19.644-43.79,43.79v6.971h-14.243v-6.971c0-32,26.033-58.032,58.033-58.032c32,0,58.032,26.033,58.032,58.032
					V1133.245z"/>
			</g>
		</g>
	</g>
</g>
<g id="people">
	<g id="female_2_">
		<path style="fill:#F7A58E;" d="M1667.048,1134.945l6.727,27.037l1.222,5.027c1.358,6.386,43.544,3.669,40.555-3.804l-2.514-5.502
			l-12.974-28.464L1667.048,1134.945z"/>
		<g>
			<g>
				<path style="fill:#F7A58E;" d="M1642.383,1094.837c-0.43,29.316,13.179,53.156,34.475,53.053
					c21.296-0.103,41.9-18.171,42.646-53.426c0.475-22.46-17.461-40.592-38.757-40.489
					C1659.45,1054.078,1642.713,1072.375,1642.383,1094.837z"/>
			</g>
			<path d="M1680.106,1045.913c0,0-42.434,2.095-45.964,34.234c-4.712,28.207,16.45,7.469,25.09,26.4
				c9.896,21.682-0.189,37.549-13.052,41.858c11.434,15.965,76.82,15.391,93.646-12.621
				C1751.35,1100.647,1735.045,1047.863,1680.106,1045.913z"/>
			<path style="fill:#F7A58E;" d="M1650.351,1105.387c-0.354,4.352,2.887,8.167,7.239,8.52c4.352,0.354,8.167-2.887,8.52-7.239
				c0.354-4.352-2.887-8.167-7.239-8.52C1654.52,1097.794,1650.705,1101.035,1650.351,1105.387z"/>
		</g>
		<path style="fill:#FFFFFF;" d="M1656.851,1650.797c-1.989-2.107-11.372-2.139-12.229,0.976s0.797,5.341-3.163,10.281
			c2.279,0.658,10.361,0.719,12.835,0C1656.768,1661.334,1658.84,1652.904,1656.851,1650.797z"/>
		<path style="fill:#00050D;" d="M1672.356,1661.444h-22.865c-2.138-96.756-1.728-202.086-0.959-281.413
			c0.277-28.409,1.061-42.777,6.211-59.833c10.407-34.44,59.334-23.836,62.806,7.379c1.447,17.323,2.506,51.118-29.517,165.95
			C1701.898,1544.088,1677.704,1604.706,1672.356,1661.444z"/>
		<path style="fill:#FFFFFF;" d="M1636.684,1662.92c3.368-0.18,11.232-3.422,12.715-5.66c2.186,2.443,6.736,3.119,12.23,2.299
			c6.489-0.969,7.345-3.984,11.999-3.582c1.962,5.456,6.742,17.698,2.13,20.538c0,0-27.267,0-48.074,0
			C1623.393,1672.595,1623.505,1664.231,1636.684,1662.92z"/>
		<g>
			<path style="fill:#FFFFFF;" d="M1773.263,1653.245c-1.672-1.771-9.557-1.798-10.277,0.82c-0.72,2.618,0.67,4.489-2.658,8.64
				c1.915,0.553,8.707,0.604,10.786,0S1774.935,1655.016,1773.263,1653.245z"/>
			<path style="fill:#00050D;" d="M1697.907,1326.699c4.676-35.672,68.137-32.008,72.356-0.861
				c1.524,16.761,6.179,41.987-5.746,166.474c25.157,47.507,18.049,115.673,25.564,165.852c0.83,7.635-20.797,9.469-22.477,2.664
				c-23.048-93.097-55.255-197.546-67.228-275C1696.033,1357.752,1695.595,1344.366,1697.907,1326.699z"/>
			<path style="fill:#FFFFFF;" d="M1756.247,1661.444c3.368-0.18,8.334-4.562,9.816-6.8c2.186,2.442,6.358,5.734,11.851,4.914
				c6.488-0.969,7.345-3.984,11.999-3.582c1.963,5.456,6.743,17.698,2.131,20.538c0,0-25.955,0-46.762,0
				C1740.99,1672.595,1743.068,1662.756,1756.247,1661.444z"/>
		</g>
		<g>
			<path style="fill:#F7A58E;" d="M1495.719,1276.279l-2.368-11.89c5.808-2.264,14.611-6.958,24.854-10.946l5.624,19.275
				C1512.488,1274.402,1502.439,1275.633,1495.719,1276.279z"/>
			<path style="fill:#FF7268;" d="M1518.206,1253.443c19.742-9.177,53.56-29.135,61.335-32.755l83.445-51.232
				c17.998-5.464,38.984,30.16,16.229,46.234c0,0-129.034,53.113-155.385,57.027L1518.206,1253.443z"/>
			<g>
				<path style="fill:#F7A58E;" d="M1487.28,1285.841c-8.073-2.42-10.867-14.312-11.075-15.215l16.699-6.093
					c8.125-3.284,12.776,6.537,7.649,13.631C1500.553,1278.164,1494.969,1287.631,1487.28,1285.841z"/>
				<path style="fill:#F7A58E;" d="M1480.082,1275.268c-19.29,4.141-18.542-0.585-18.542-0.585s6.508-2.161,18.261-5.37
					C1486.591,1267.797,1484.721,1273.765,1480.082,1275.268z"/>
			</g>
		</g>
		<path id="XMLID_1_" style="fill:#FF7268;" d="M1649.03,1220.362c-4.01-19.518-6.161-38.789,13.955-50.906
			c11.927-7.185,50.267-12.316,68.193-6.384c18.063,8.073,14.157,43.281,17.541,98.88c12.447,27.745,17.858,36.861,21.544,63.886
			c0,0-6.659,20.362-53.573,20.389c-21.302,0.012-52.677-1.882-66.95-12.747c1.423-18.429,9.13-36.186,12.342-62.277
			C1662.082,1271.203,1649.321,1222.601,1649.03,1220.362z"/>
		<g>
			<g>
				<path style="fill:#FF7268;" d="M1740.813,1166.997c22.019,16.811,43.496,43.246,53.646,57.284s36.44,70.458,36.44,70.458
					l-16.732,12.335l-45.258-61.667l-55.29-45.35C1694.434,1180.475,1719.368,1150.624,1740.813,1166.997z"/>
				<path style="fill:#F7A58E;" d="M1837.91,1309.047l-10.845-22.409c-2.551,6.739-14.967,12.886-18.532,12.757
					c0,0,11.662,16.782,14.513,19.633C1825.896,1321.88,1837.674,1317.052,1837.91,1309.047z"/>
			</g>
			<g>
				<path style="fill:#F7A58E;" d="M1820.301,1315.284c0.043,0.167-0.005,0.393,0.038,0.56c0.545,8.154,6.812,12.014,8.508,12.928
					c0.135,0.108,0.286,0.14,0.437,0.172c-5.895-1.18-7.661,6.718-4.662,8.54c8.676,5.872,21.041-2.206,22.087-7.105
					c1.062-4.974-8.821-21.428-8.821-21.428C1832.847,1304.881,1819.944,1305.515,1820.301,1315.284z"/>
				<path style="fill:#E6856A;" d="M1820.339,1315.845c0.348,9.215,8.654,13.008,8.805,13.04c4.859-0.135,6.591-0.428,11.228-0.416
					c-3.027-1.477-9.234-5.403-6.831-13.028C1828.789,1311.803,1821.639,1314.982,1820.339,1315.845z"/>
				<path style="fill:#F7A58E;" d="M1820.214,1314.796c-1.278,7.608-0.738,18.448,1.071,23.218c0,0,4.664,0.245,4.227-8.564
					c-0.114-2.292,0.217-7.271,2.485-8.928c6.982-4.614,8.106-8.847,5.544-12.319
					C1830.129,1303.576,1820.483,1308.272,1820.214,1314.796z"/>
				<path style="fill:#F7A58E;" d="M1841.824,1335.588c-3.788,2.626-13.816,7.719-15.398,6.462
					c-1.582-1.257,6.436-9.791,11.611-10.92C1843.212,1330,1843.765,1334.243,1841.824,1335.588z"/>
			</g>
		</g>
	</g>
	<g id="male_02_2_">
		<path style="fill:#50318F;" d="M1556.48,685.964c10.833-15.69,0.863-64.514-45.389-78.539
			c-39.074-10.075-59.41,2.285-112.264,16.674l7.886,61.865H1556.48z"/>
		<path style="fill:#50318F;" d="M1462.199,609.977c0,0-94.676,19.554-129.625,32.41c-20.044,7.373-25.015,23.951-17.29,36.704
			c11.442,18.892,147.268,5.492,147.268,5.492C1509.407,671.468,1484.605,609.158,1462.199,609.977z"/>
		<path style="fill:#50318F;" d="M1506.266,604.673c0,0,60.461,20.509,94.466,35.69c33,2.598,30.837,43.58,15.214,46.224
			c-35.924,9.748-115.057-7.5-115.057-7.5C1455.023,662.845,1483.965,602.347,1506.266,604.673z"/>
		<path style="fill:#50318F;" d="M1410.401,646.842c0,0-19.062-29.008,28.246-51.479c47.308-22.471,79.131-0.008,71.246,27.194
			c-7.885,27.202-35.765,45.345-35.765,45.345S1426.958,668.13,1410.401,646.842z"/>
		<path style="fill:#F7A28A;" d="M1463.657,642.961c22.766-15.801,13.618-46.564,13.618-46.564l-8.618-16.447l-7.182-13.694
			l-37.985,14.631l6.912,28.12c0,0,1.881,6.586,6.005,13.947C1441.646,632.3,1450.488,642.917,1463.657,642.961z"/>
		<path style="fill:#F0896C;" d="M1436.407,622.954c18.235-11.764,27.563-29.533,32.25-43.004l-7.182-13.694l-37.985,14.631
			l6.912,28.12C1430.402,609.006,1432.283,615.592,1436.407,622.954z"/>
		<g>
			<path style="fill:#3D3D3D;" d="M1379.782,530.086c0,0-8.744,2.334-10,12.774s9.11,14.704,9.11,14.704s-6.79,13.03,7.554,18.301
				C1415.678,586.606,1412.829,523.572,1379.782,530.086z"/>
			<path style="fill:#F7A28A;" d="M1388.105,563.736c8.958,26.427,27.596,51.185,42.599,45.021
				c25.44-10.451,46.793-38.875,36.232-68.799c-10.56-29.924-33.248-43.677-57.311-35.185
				C1385.563,513.265,1377.918,533.683,1388.105,563.736z"/>
			<path style="fill:#3D3D3D;" d="M1375.856,529.612c5.373,4.557,25.281,12.296,66.445-7.644
				c6.844,4.937,11.928,12.455,15.41,20.808c3.879-0.919,5.452-2.938,8.124,0.383c3.693,4.588,5.637,14.633,1.049,18.326
				c-1.164,0.937-2.463,1.584-3.818,1.964c-1.646,7.038-0.08,14.778,5.589,16.501c8.756-7.046,7.697-8.678,10.929-16.793
				c10.216-7.17,10.241-22.907,2.015-27.214c7.807-7.321-1.622-23.364-13.178-23.897c0.078-8.873-11.215-24.724-25.407-15.449
				c0.41-9.538-16.905-15.797-26.275-1.748c-7.547-10.297-30.457-4.066-29.575,9.619
				C1373.306,502.064,1365.704,520.688,1375.856,529.612z"/>
		</g>
		<g>
			<path style="fill:#F7A28A;" d="M1315.308,671.984c0,0-2.397,22.984,39.947,26.666c48.226,4.194,88.929,2.972,88.929,2.972
				l4.337-18.213c0,0-85.549-29.018-106.488-30.283C1317.095,651.621,1315.308,671.984,1315.308,671.984z"/>
			<path style="fill:#F7A28A;" d="M1447.488,683.062l27.017-5.643c0,0,17.408,8.328,22.822,19.155
				c-3.963,4.443-14.77-4.924-14.77-4.924s1.092,18.109-1.561,21.551c-2.653,3.442-15.923,5.735-20.27,1.999
				c-4.347-3.736,3.218-8.179,3.218-8.179l-19.76-5.397C1444.184,701.623,1434.989,687.834,1447.488,683.062z"/>
		</g>
		<path style="fill:#F7A28A;" d="M1462.231,528.868c0-0.411-0.333-0.745-0.745-0.745c-0.411,0-0.745,0.333-0.745,0.745
			s0.333,0.745,0.745,0.745C1461.897,529.612,1462.231,529.279,1462.231,528.868z"/>
		<g>
			<path style="fill:#F7A28A;" d="M1617.787,658.838c0,0,14.263,18.182-19.625,43.837c-38.596,29.218-73.704,49.848-73.704,49.848
				l-13.365-13.111c0,0,56.98-70.1,74.034-82.315C1605.435,642.55,1617.787,658.838,1617.787,658.838z"/>
			<path style="fill:#F7A28A;" d="M1511.066,739.394l-15.076,23.119c0,0,1.432,19.245,9.551,28.223
				c5.58-2.077,0.781-15.55,0.781-15.55s16.474,7.599,20.644,6.378c4.171-1.22,11.13-12.75,9.229-18.157
				c-1.9-5.408-8.789,0.025-8.789,0.025l3.27-17.209C1533.35,736.629,1517.388,729.709,1511.066,739.394z"/>
		</g>
	</g>
	<g id="male_01_2_">
		<path style="fill:#F7B28A;" d="M765.037,1085.203c2.616,24.676-9.816,50.984-25.462,50.794
			c-21.46-0.261-49.209-17.923-51.826-42.599s12.564-46.515,33.906-48.778C742.998,1042.357,762.421,1060.527,765.037,1085.203z"/>
		<g>
			<path style="fill:#FFFFFF;" d="M632.045,1653.252c0,0,22.539-2.524,40.112,0c14.574,9.622,20.861,9.061,20.861,9.061
				c6.228,1.63,9.005,10.183,3.601,10.183h-66.393L632.045,1653.252z"/>
			<path style="fill:#FFFFFF;" d="M739.564,1653.252c0,0,22.152-2.524,40.112,0c16.049,9.622,22.25,9.061,22.25,9.061
				c6.478,1.63,10.566,10.183,5.162,10.183h-66.393L739.564,1653.252z"/>
			<polygon style="fill:#F7B28A;" points="718.913,1165.204 677.183,1151.115 707.413,1088.163 736.752,1102.252 			"/>
			<path style="fill:#F2B231;" d="M760.332,1209.36c0,0,32.374,23.719,16.573,48.888c-11.775,18.756-49.466-1.555-49.466-23.377
				C727.439,1215.201,742.581,1203.603,760.332,1209.36z"/>
			<path style="fill:#333333;" d="M660.334,1307.004c0,0-7.784,13.494-12.991,40.373c-1.85,9.551,0.316,52.75-0.3,125.506
				c-15.137,94.083-16.818,188.308-16.818,188.308l41.931-7.94l64.188-342.327L660.334,1307.004z"/>
			<path style="fill:#333333;" d="M755.253,1315.728c8.24,64.59,14.198,122.572,14.733,164.86l9.689,172.665l-39.868,7.622
				c-8.173-53.58-21.775-120.498-23.926-182.569l-43.472-162.07L755.253,1315.728z"/>
			<path style="fill:#FFD834;" d="M647.927,1312.414c2.764,16.695,4.268,17.823,4.268,17.823l106.216,2.346
				c0,0-3.157-16.855-0.486-25.575c0.494-1.613,0.62-6.656-0.091-14.195c-1.006-10.812-3.302-26.583-6.382-43.847
				c-6.625-37.11-16.889-81.119-25.922-97.652l-46.367-11.127c0,0-20.679,20.973-25.231,39.538
				C649.369,1198.29,645.162,1295.729,647.927,1312.414z"/>
			<path style="fill:#F2B231;" d="M722.644,1236.761l35.189,56.052c-1.006-10.812-3.302-26.583-6.382-43.847L722.644,1236.761z"/>
			<path style="fill:#F7B28A;" d="M709.959,1222.793c0,0-12.474,26.866,0.48,34.062c12.953,7.196,25.906-15.832,25.906-15.832
				L709.959,1222.793z"/>
			<path style="fill:#FFD834;" d="M761.33,1151.197l-8.977,57.974l-27.937-32.888c0,0-25.108-25.462-45.266-2.476
				c-20.157,22.987,11.316,45.973,11.316,45.973s45.973,37.418,75.325,33.528c29.352-3.89,11.032-101.009,11.032-101.009
				L761.33,1151.197z"/>
			<path style="fill:#F7B28A;" d="M761.33,1151.197l-4.526-22.081l11.543-17.527c0,0,4.3-3.169,5.885,6.563
				c3.161,4.526,7.016,7.881,6.563,12.994c-0.453,5.113-3.972,21.152-3.972,21.152L761.33,1151.197z"/>
			<polygon style="fill:#FFEAC2;" points="679.166,1140.185 682.449,1131.698 731.568,1151.197 735.431,1172.525 			"/>
			<path d="M692.969,1118.662c0,0-16.021-23.061-11.008-50.635c5.013-27.574,45.873-33.339,45.873-33.339s42.614-2.507,52.14,40.859
				c-4.512,5.766-23.062-3.76-23.062-3.76l-30.491,27.824c0,0,0.359-21.808-10.394-16.294c-10.753,5.515-7.543,23.062-7.543,23.062
				S698.463,1116.907,692.969,1118.662z"/>
		</g>
	</g>
</g>
<g id="shield">
	<g>
		<g>
			<g>
				<path style="fill:#D9FFFF;" d="M1864.815,974.612L1864.815,974.612c0.003-0.749,0.005-1.079,0.005-1.155
					C1864.819,973.596,1864.815,974.612,1864.815,974.612z"/>
				<path style="fill:#D9FFFF;" d="M1864.815,974.612L1864.815,974.612c0.003-0.749,0.005-1.079,0.005-1.155
					C1864.819,973.596,1864.815,974.612,1864.815,974.612z"/>
				<path style="fill:#D9FFFF;" d="M2311.882,976.611c0,0,0.005-1.016,0.005-1.155
					C2311.887,975.531,2311.885,975.862,2311.882,976.611L2311.882,976.611z"/>
				<path style="fill:#D9FFFF;" d="M2311.882,976.611c0,0,0.005-1.016,0.005-1.155
					C2311.887,975.531,2311.885,975.862,2311.882,976.611L2311.882,976.611z"/>
				<path style="fill:#FFFFFF;" d="M2089.176,869.558c-49.489,53.011-128.456,96.457-212.958,114.967
					c-0.025,5.644-0.165,36.912-0.809,181.032c-0.859,192.255,182.109,286.204,210.514,300.622
					c27.524-12.669,212.8-106.471,213.66-298.726c0.644-144.12,0.784-175.388,0.809-181.032
					C2216.058,967.156,2138.189,923.01,2089.176,869.558z"/>
			</g>
		</g>
		<g>
			<path style="fill:#80B2FF;" d="M2088.732,890.409c-51.017,46.801-121.697,83.584-199.417,103.634l-0.767,171.48
				c-0.351,78.464,30.821,149.446,92.652,210.983c40.626,40.432,83.341,65.509,105.015,76.785c0.932-0.473,1.955-1.007,2.961-1.531
				V890.808C2089.029,890.674,2088.875,890.544,2088.732,890.409z"/>
			<path style="fill:#4D93FF;" d="M2089.176,890.808v560.952c22.538-11.725,63.505-35.962,102.737-74.313
				c62.376-60.981,94.182-131.682,94.531-210.146l0.767-171.483C2209.893,975.138,2139.736,937.872,2089.176,890.808z"/>
		</g>
		<path style="fill:#0046B3;" d="M2244.901,1062.688c-59.169,9.124-139.74,63.09-190.57,127.98
			c-7.13-30.596-39.137-58.529-55.882-64.634l-50.733,50.994c31.677,14.275,66.293,54.723,70.882,96.13l50.68,7.854
			c21.368-42.208,76.552-143.167,186.339-197.454C2253.501,1075.295,2245.75,1063.867,2244.901,1062.688z"/>
	</g>
</g>
</svg>
